<?xml version="1.0" encoding="UTF-8" standalone="no"?>
<!-- Created with Inkscape (http://www.inkscape.org/) -->

<svg
   width="800"
   height="500"
   viewBox="0 0 800 500"
   version="1.1"
   id="svg1"
   xmlns="http://www.w3.org/2000/svg"
   xmlns:svg="http://www.w3.org/2000/svg">
  <defs
     id="defs1" />
  <g
     id="layer1">
    <path
       d="m 236.10495,182.80515 c -5.35249,0 -9.05803,3.70556 -9.05803,8.95511 v 54.14246 c 0,5.24956 3.70554,8.95512 9.05803,8.95512 h 39.11435 v -18.01317 h -25.6302 v -35.92343 h 22.13046 l 3.49974,-9.16098 v -8.95511 z"
       id="path149"
       style="font-size:95.25px;line-height:110.409px;font-family:Molot;-inkscape-font-specification:'Molot, Normal';text-align:center;text-anchor:middle;fill:#004d29;stroke-width:4.28885;paint-order:markers fill stroke"
       aria-label="С" />
    <path
       d="m 212.75072,168.50894 v -18.01317 h -25.73316 v -9.88151 h 22.13049 v -18.01319 h -22.13049 v -8.02873 h 22.13049 l 3.60267,-9.16098 v -8.955115 h -48.1724 v 72.052695 z"
       id="path150"
       style="font-size:95.25px;line-height:103.884px;font-family:Molot;-inkscape-font-specification:'Molot, Normal';text-align:center;text-anchor:middle;fill:#004d29;stroke-width:4.28885;paint-order:markers fill stroke"
       aria-label="Е&#10;" />
    <path
       style="fill:#afc9ba;fill-opacity:1;stroke:none;stroke-width:85.7769;stroke-linejoin:round;stroke-dasharray:none;stroke-opacity:0.692265"
       d="m 227.06873,102.25243 -0.0446,66.26688 56.28485,-0.009 24.69493,-29.05968 -51.52716,-0.0133 -0.003,-71.855089 z"
       id="path151" />
    <path
       style="fill:#afc9ba;fill-opacity:1;stroke:none;stroke-width:85.7769;stroke-linejoin:round;stroke-dasharray:none;stroke-opacity:0.692265"
       d="m 212.73627,251.65064 -0.006,-68.78721 -54.1766,-0.0423 -24.65513,29.07163 51.05353,0.0184 0.0446,72.33447 z"
       id="path152" />
    <g
       id="text154"
       style="font-size:10.8908px;line-height:9.52949px;font-family:'Supermolot Light';-inkscape-font-specification:'Supermolot Light, Normal';text-align:center;text-anchor:middle;fill:#004d29;stroke-width:2.60022;stroke-linejoin:round"
       aria-label="Електричар&#10;Сомбор&#10;063 1994890"
       transform="matrix(5.5755069,0,0,5.5755069,-1492.4256,-200.59533)">
      <path
         style="text-align:start;text-anchor:start"
         d="m 320.65111,76.317177 h 4.90086 v -0.598994 h -4.1385 v -2.99497 h 3.21278 v -0.598994 h -3.21278 v -2.831608 h 3.92069 l 0.21781,-0.217816 v -0.381179 h -4.90086 z m 7.13347,-7.623561 -0.54454,6.098849 c -0.0545,0.653448 -0.43563,1.034626 -0.92571,1.034626 h -0.21782 v 0.598994 h 0.21782 c 1.03462,0 1.60094,-0.598994 1.68807,-1.63362 l 0.49009,-5.499854 h 3.10388 v 7.024566 h 0.76235 v -7.623561 z m 6.64339,7.623561 h 4.90086 v -0.598994 h -4.13851 v -2.99497 h 3.21279 v -0.598994 h -3.21279 v -2.831608 h 3.92069 l 0.21782,-0.217816 v -0.381179 h -4.90086 z m 8.93045,-4.138504 h -1.85143 v -3.485057 h -0.76236 v 7.623561 h 0.76236 v -3.53951 h 1.85143 l 2.12371,3.53951 h 0.7079 v -0.381178 l -2.17816,-3.485056 1.90589,-3.376148 v -0.381179 h -0.7079 z m 6.58893,-2.886062 h 2.17816 l 0.21781,-0.217816 v -0.381179 h -5.5543 v 0.598995 h 2.39597 v 7.024566 h 0.76236 z m 3.64841,-0.598995 v 7.623561 h 0.76235 v -2.613792 h 2.61379 c 1.14354,0 1.79699,-0.653448 1.79699,-1.63362 v -1.742528 c 0,-0.980172 -0.65345,-1.633621 -1.79699,-1.633621 z m 3.37614,0.598995 c 0.599,0 1.03463,0.435632 1.03463,1.034626 v 1.742528 c 0,0.598994 -0.43563,1.034626 -1.03463,1.034626 h -2.61379 v -3.81178 z m 4.41077,7.024566 3.70287,-6.588934 h 0.0545 l -0.10891,1.579166 v 5.009768 h 0.76235 v -7.623561 h -0.92571 l -3.70288,6.588935 h -0.0544 l 0.10891,-1.579166 v -5.009769 h -0.76236 v 7.623561 z m 6.97012,-4.519682 v -3.103879 h -0.76236 v 3.103879 c 0,0.980172 0.65345,1.63362 1.79698,1.63362 h 2.66825 v 2.886062 h 0.76236 v -7.623561 h -0.76236 v 4.138505 h -2.66825 c -0.59899,0 -1.03462,-0.435632 -1.03462,-1.034626 z m 7.18793,2.504884 h 3.4306 l 0.7079,2.014798 h 0.70791 v -0.381178 l -2.6138,-7.242383 h -1.03462 l -2.61379,7.242383 v 0.381178 h 0.7079 z m 3.26724,-0.598994 h -3.10388 l 1.52471,-4.247412 h 0.0545 z m 2.88606,-5.009769 v 7.623561 h 0.76236 v -2.613792 h 2.61379 c 1.14354,0 1.79698,-0.653448 1.79698,-1.63362 v -1.742528 c 0,-0.980172 -0.65344,-1.633621 -1.79698,-1.633621 z m 3.37615,0.598995 c 0.599,0 1.03463,0.435632 1.03463,1.034626 v 1.742528 c 0,0.598994 -0.43563,1.034626 -1.03463,1.034626 h -2.61379 v -3.81178 z"
         id="path1" />
      <path
         style="text-align:start;text-anchor:start"
         d="m 320.48775,79.856727 v 4.35632 c 0,0.980172 0.65345,1.63362 1.79698,1.63362 h 3.15833 v -0.598994 h -3.15833 c -0.59899,0 -1.03462,-0.435632 -1.03462,-1.034626 v -4.35632 c 0,-0.598994 0.43563,-1.034626 1.03462,-1.034626 h 2.94052 l 0.21781,-0.217816 v -0.381178 h -3.15833 c -1.14353,0 -1.79698,0.653448 -1.79698,1.63362 z m 9.96508,6.098848 c 1.14353,0 1.79698,-0.653448 1.79698,-1.63362 v -4.574136 c 0,-0.980172 -0.65345,-1.63362 -1.79698,-1.63362 h -1.96035 c -1.14353,0 -1.79698,0.653448 -1.79698,1.63362 v 4.574136 c 0,0.980172 0.65345,1.63362 1.79698,1.63362 z m -1.96035,-0.598994 c -0.59899,0 -1.03462,-0.435632 -1.03462,-1.034626 v -4.574136 c 0,-0.598994 0.43563,-1.034626 1.03462,-1.034626 h 1.96035 c 0.59899,0 1.03463,0.435632 1.03463,1.034626 v 4.574136 c 0,0.598994 -0.43564,1.034626 -1.03463,1.034626 z m 10.40072,-0.435632 2.34152,-5.881032 h 0.0545 l 0.87126,6.80675 h 0.7079 v -0.381178 l -0.98017,-7.242382 h -1.08908 l -2.39598,5.881032 h -0.0545 l -2.39598,-5.881032 h -1.08908 l -0.98017,7.242382 v 0.381178 h 0.7079 l 0.87127,-6.80675 h 0.0544 l 2.34152,5.881032 z m 9.31164,0.925718 c 1.14353,0 1.79698,-0.653448 1.79698,-1.63362 v -1.415804 c 0,-0.980172 -0.65345,-1.63362 -1.79698,-1.63362 h -2.77716 v -2.341522 h 3.92069 l 0.21782,-0.217816 v -0.381178 h -4.90086 v 7.62356 z m -2.77716,-0.598994 v -3.485056 h 2.77716 c 0.59899,0 1.03462,0.435632 1.03462,1.034626 v 1.415804 c 0,0.598994 -0.43563,1.034626 -1.03462,1.034626 z m 9.85618,0.707902 c 1.14354,0 1.79698,-0.653448 1.79698,-1.63362 v -4.574136 c 0,-0.980172 -0.65344,-1.63362 -1.79698,-1.63362 h -1.96034 c -1.14354,0 -1.79698,0.653448 -1.79698,1.63362 v 4.574136 c 0,0.980172 0.65344,1.63362 1.79698,1.63362 z m -1.96034,-0.598994 c -0.599,0 -1.03463,-0.435632 -1.03463,-1.034626 v -4.574136 c 0,-0.598994 0.43563,-1.034626 1.03463,-1.034626 h 1.96034 c 0.599,0 1.03463,0.435632 1.03463,1.034626 v 4.574136 c 0,0.598994 -0.43563,1.034626 -1.03463,1.034626 z m 5.66322,-7.133474 v 7.62356 h 0.76235 v -2.613792 h 2.61379 c 1.14354,0 1.79699,-0.653448 1.79699,-1.63362 v -1.742528 c 0,-0.980172 -0.65345,-1.63362 -1.79699,-1.63362 z m 3.37614,0.598994 c 0.599,0 1.03463,0.435632 1.03463,1.034626 v 1.742528 c 0,0.598994 -0.43563,1.034626 -1.03463,1.034626 h -2.61379 v -3.81178 z"
         id="path2" />
      <path
         style="text-align:start;text-anchor:start"
         d="m 323.91835,95.485066 c 1.14354,0 1.79698,-0.653448 1.79698,-1.63362 V 89.27731 c 0,-0.980172 -0.65344,-1.63362 -1.79698,-1.63362 h -1.63362 c -1.14353,0 -1.79698,0.653448 -1.79698,1.63362 v 4.574136 c 0,0.980172 0.65345,1.63362 1.79698,1.63362 z m -1.63362,-0.598994 c -0.59899,0 -1.03462,-0.435632 -1.03462,-1.034626 V 89.27731 c 0,-0.598994 0.43563,-1.034626 1.03462,-1.034626 h 1.63362 c 0.599,0 1.03463,0.435632 1.03463,1.034626 v 4.574136 c 0,0.598994 -0.43563,1.034626 -1.03463,1.034626 z m 5.93548,-5.499854 c 0,-0.620776 0.43563,-1.034626 1.03463,-1.034626 h 2.66824 l 0.21782,-0.217816 v -0.381178 h -2.88606 c -1.14354,0 -1.79698,0.653448 -1.79698,1.63362 v 4.465228 c 0,0.980172 0.65344,1.63362 1.79698,1.63362 h 1.47026 c 1.14353,0 1.79698,-0.653448 1.79698,-1.63362 v -1.415804 c 0,-0.980172 -0.65345,-1.63362 -1.79698,-1.63362 h -2.50489 z m 1.03463,5.499854 c -0.599,0 -1.03463,-0.435632 -1.03463,-1.034626 v -2.45043 h 2.50489 c 0.59899,0 1.03462,0.435632 1.03462,1.034626 v 1.415804 c 0,0.598994 -0.43563,1.034626 -1.03462,1.034626 z m 8.44037,-1.143534 c 0,0.598994 -0.43563,1.034626 -1.03462,1.034626 h -3.21279 v 0.598994 h 3.21279 c 1.14353,0 1.79698,-0.653448 1.79698,-1.63362 v -1.034626 c 0,-0.980172 -0.65345,-1.63362 -1.79698,-1.63362 h -1.14354 v -0.05445 l 2.7227,-2.7227 v -0.54454 h -4.8464 v 0.381178 l 0.21781,0.217816 h 3.70287 v 0.05445 l -2.77715,2.777154 v 0.490086 h 2.12371 c 0.59899,0 1.03462,0.435632 1.03462,1.034626 z m 7.02458,-5.98994 h -0.599 l -1.68807,0.326724 v 0.326724 h 1.52471 v 6.970112 h 0.76236 z m 5.98994,5.98994 c 0,0.620776 -0.43563,1.034626 -1.03463,1.034626 h -2.99497 v 0.598994 h 2.99497 c 1.14354,0 1.79698,-0.653448 1.79698,-1.63362 V 89.27731 c 0,-0.980172 -0.65344,-1.63362 -1.79698,-1.63362 h -1.47026 c -1.14353,0 -1.79698,0.653448 -1.79698,1.63362 v 1.415804 c 0,0.980172 0.65345,1.63362 1.79698,1.63362 h 2.50489 z m -1.03463,-5.499854 c 0.599,0 1.03463,0.435632 1.03463,1.034626 v 2.45043 h -2.50489 c -0.59899,0 -1.03462,-0.435632 -1.03462,-1.034626 V 89.27731 c 0,-0.598994 0.43563,-1.034626 1.03462,-1.034626 z m 7.56911,5.499854 c 0,0.620776 -0.43563,1.034626 -1.03462,1.034626 h -2.99497 v 0.598994 h 2.99497 c 1.14353,0 1.79698,-0.653448 1.79698,-1.63362 V 89.27731 c 0,-0.980172 -0.65345,-1.63362 -1.79698,-1.63362 h -1.47026 c -1.14353,0 -1.79698,0.653448 -1.79698,1.63362 v 1.415804 c 0,0.980172 0.65345,1.63362 1.79698,1.63362 h 2.50488 z m -1.03462,-5.499854 c 0.59899,0 1.03462,0.435632 1.03462,1.034626 v 2.45043 h -2.50488 c -0.59899,0 -1.03463,-0.435632 -1.03463,-1.034626 V 89.27731 c 0,-0.598994 0.43564,-1.034626 1.03463,-1.034626 z m 7.67802,-0.490086 h -1.03463 l -3.81178,5.282038 v 0.54454 h 4.08405 v 1.796982 h 0.76236 v -1.796982 h 1.19798 v -0.598994 h -1.19798 z m -0.81681,0.871264 h 0.0544 v 4.35632 h -3.21279 v -0.05445 c 1.04552,-1.426695 2.10193,-2.875171 3.15834,-4.301866 z m 6.48001,6.861204 c 1.14354,0 1.79699,-0.653448 1.79699,-1.63362 v -1.143534 c 0,-1.143534 -1.19799,-1.36135 -1.19799,-1.36135 v -0.05445 c 0,0 0.98017,-0.217816 0.98017,-1.252442 v -0.76236 c 0,-0.980172 -0.65345,-1.63362 -1.79698,-1.63362 h -1.36135 c -1.14354,0 -1.79698,0.653448 -1.79698,1.63362 v 0.762356 c 0,1.034626 0.98017,1.252442 0.98017,1.252442 v 0.05445 c 0,0 -1.19799,0.217816 -1.19799,1.36135 v 1.143534 c 0,0.980172 0.65345,1.63362 1.79698,1.63362 z m -1.79698,-0.598994 c -0.59899,0 -1.03462,-0.435632 -1.03462,-1.034626 v -1.154425 c 0,-0.588103 0.43563,-1.023735 1.03462,-1.023735 h 1.79698 c 0.599,0 1.03463,0.435632 1.03463,1.034626 v 1.143534 c 0,0.598994 -0.43563,1.034626 -1.03463,1.034626 z m 0.21782,-3.81178 c -0.599,0 -1.03463,-0.435632 -1.03463,-1.034626 V 89.27731 c 0,-0.598994 0.43563,-1.034626 1.03463,-1.034626 h 1.36135 c 0.59899,0 1.03462,0.435632 1.03462,1.034626 v 0.762356 c 0,0.598994 -0.43563,1.034626 -1.03462,1.034626 z m 8.9849,2.668246 c 0,0.620776 -0.43563,1.034626 -1.03462,1.034626 h -2.99497 v 0.598994 h 2.99497 c 1.14353,0 1.79698,-0.653448 1.79698,-1.63362 V 89.27731 c 0,-0.980172 -0.65345,-1.63362 -1.79698,-1.63362 h -1.47026 c -1.14353,0 -1.79698,0.653448 -1.79698,1.63362 v 1.415804 c 0,0.980172 0.65345,1.63362 1.79698,1.63362 h 2.50488 z m -1.03462,-5.499854 c 0.59899,0 1.03462,0.435632 1.03462,1.034626 v 2.45043 h -2.50488 c -0.59899,0 -1.03463,-0.435632 -1.03463,-1.034626 V 89.27731 c 0,-0.598994 0.43564,-1.034626 1.03463,-1.034626 z m 6.97012,7.242382 c 1.14353,0 1.79698,-0.653448 1.79698,-1.63362 V 89.27731 c 0,-0.980172 -0.65345,-1.63362 -1.79698,-1.63362 h -1.63362 c -1.14354,0 -1.79699,0.653448 -1.79699,1.63362 v 4.574136 c 0,0.980172 0.65345,1.63362 1.79699,1.63362 z m -1.63362,-0.598994 c -0.599,0 -1.03463,-0.435632 -1.03463,-1.034626 V 89.27731 c 0,-0.598994 0.43563,-1.034626 1.03463,-1.034626 h 1.63362 c 0.59899,0 1.03462,0.435632 1.03462,1.034626 v 4.574136 c 0,0.598994 -0.43563,1.034626 -1.03462,1.034626 z"
         id="path3" />
    </g>
    <g
       id="text156"
       style="font-size:27.5369px;line-height:35.4045px;font-family:'Supermolot Light';-inkscape-font-specification:'Supermolot Light, Normal';text-align:center;text-anchor:middle;stroke-width:1.47518"
       aria-label="Електричне инсталације, бојлери,&#10;шпорети, кућно звоно и све тсл.">
      <path
         style="text-align:start;text-anchor:start"
         d="m 161.76322,386.12189 h 12.39161 v -1.51453 h -10.46402 v -7.57265 h 8.12338 v -1.51453 h -8.12338 v -7.15959 h 9.91328 l 0.55074,-0.55074 v -0.96379 h -12.39161 z m 18.03667,-19.27583 -1.37685,15.42066 c -0.13768,1.65222 -1.10147,2.61601 -2.34063,2.61601 h -0.55074 v 1.51453 h 0.55074 c 2.616,0 4.04792,-1.51453 4.26822,-4.13054 l 1.23916,-13.90613 h 7.84801 v 17.7613 h 1.92759 v -19.27583 z m 16.79749,19.27583 h 12.39161 v -1.51453 h -10.46402 v -7.57265 h 8.12338 v -1.51453 h -8.12338 v -7.15959 h 9.91328 l 0.55074,-0.55074 v -0.96379 h -12.39161 z m 22.58026,-10.46402 h -4.68128 v -8.81181 h -1.92758 v 19.27583 h 1.92758 v -8.9495 h 4.68128 l 5.36969,8.9495 h 1.7899 v -0.96379 l -5.50738,-8.81181 4.81896,-8.53644 v -0.96379 h -1.7899 z m 16.65979,-7.29728 h 5.50738 l 0.55074,-0.55074 v -0.96379 h -14.04382 v 1.51453 h 6.05812 v 17.7613 h 1.92758 z m 9.22485,-1.51453 v 19.27583 h 1.92758 v -6.60886 h 6.60886 c 2.89137,0 4.54359,-1.65221 4.54359,-4.13053 v -4.40591 c 0,-2.47832 -1.65222,-4.13053 -4.54359,-4.13053 z m 8.53644,1.51453 c 1.51453,0 2.616,1.10147 2.616,2.616 v 4.40591 c 0,1.51453 -1.10147,2.616 -2.616,2.616 h -6.60886 v -9.63791 z m 11.15242,17.7613 9.36254,-16.65983 h 0.13769 l -0.27537,3.99285 v 12.66698 h 1.92758 v -19.27583 h -2.34064 l -9.36254,16.65982 h -0.13769 l 0.27537,-3.99285 v -12.66697 h -1.92758 v 19.27583 z m 17.62362,-11.42782 v -7.84801 h -1.92758 v 7.84801 c 0,2.47832 1.65221,4.13054 4.54358,4.13054 h 6.74654 v 7.29728 h 1.92759 v -19.27583 h -1.92759 v 10.46402 h -6.74654 c -1.51453,0 -2.616,-1.10148 -2.616,-2.61601 z m 16.52216,-7.84801 v 19.27583 h 1.92758 v -8.9495 h 9.63792 v 8.9495 H 312.39 v -19.27583 h -1.92758 v 8.81181 h -9.63792 v -8.81181 z m 18.7251,19.27583 h 12.3916 v -1.51453 H 319.5496 v -7.57265 h 8.12339 v -1.51453 h -8.12339 v -7.15959 h 9.91328 l 0.55074,-0.55074 v -0.96379 h -12.3916 z m 26.29776,0 9.36254,-16.65983 h 0.13769 l -0.27537,3.99285 v 12.66698 h 1.92758 v -19.27583 h -2.34064 l -9.36254,16.65982 h -0.13769 l 0.27537,-3.99285 v -12.66697 h -1.92758 v 19.27583 z m 16.38446,-19.27583 v 19.27583 h 1.92758 v -8.9495 h 9.63792 v 8.9495 h 1.92758 v -19.27583 h -1.92758 v 8.81181 h -9.63792 v -8.81181 z m 18.31204,4.13053 v 11.01476 c 0,2.47832 1.65222,4.13054 4.54359,4.13054 h 7.9857 v -1.51453 h -7.9857 c -1.51453,0 -2.616,-1.10148 -2.616,-2.61601 v -11.01476 c 0,-1.51453 1.10147,-2.616 2.616,-2.616 h 7.43496 l 0.55074,-0.55074 v -0.96379 h -7.9857 c -2.89137,0 -4.54359,1.65221 -4.54359,4.13053 z m 22.02952,-2.616 h 5.50738 l 0.55074,-0.55074 v -0.96379 H 392.6601 v 1.51453 h 6.05812 v 17.7613 h 1.92758 z m 9.77554,12.66697 h 8.67412 l 1.7899,5.09433 h 1.7899 v -0.96379 l -6.60885,-18.31204 h -2.61601 l -6.60886,18.31204 v 0.96379 h 1.7899 z m 8.26107,-1.51453 h -7.84802 l 3.85517,-10.73939 h 0.13769 z m 9.36254,-12.66697 -1.37684,15.42066 c -0.13769,1.65222 -1.10148,2.61601 -2.34064,2.61601 h -0.55074 v 1.51453 h 0.55074 c 2.616,0 4.04792,-1.51453 4.26822,-4.13054 l 1.23916,-13.90613 h 7.84802 v 17.7613 h 1.92758 v -19.27583 z m 18.44971,14.1815 h 8.67412 l 1.7899,5.09433 h 1.7899 v -0.96379 l -6.60886,-18.31204 h -2.616 l -6.60886,18.31204 v 0.96379 h 1.7899 z m 8.26107,-1.51453 h -7.84802 l 3.85517,-10.73939 h 0.13768 z m 21.20342,6.60886 0.55074,3.85516 h 1.51453 v -5.36969 h -2.75369 v -17.7613 h -1.92758 v 17.7613 h -9.36255 v -17.7613 h -1.92758 v 19.27583 z m 7.71035,0 9.36255,-16.65983 h 0.13768 l -0.27537,3.99285 v 12.66698 h 1.92759 v -19.27583 h -2.34064 l -9.36255,16.65982 h -0.13768 l 0.27537,-3.99285 v -12.66697 h -1.92758 v 19.27583 z m 20.79037,0.27537 c 2.89137,0 4.54359,-1.65222 4.54359,-4.13054 v -15.42066 h -1.92759 v 15.42066 c 0,1.51453 -1.10147,2.61601 -2.616,2.61601 h -6.74654 v 1.51453 z m 9.77558,-0.27537 h 12.39161 v -1.51453 h -10.46403 v -7.57265 h 8.12339 v -1.51453 h -8.12339 v -7.15959 h 9.91329 l 0.55074,-0.55074 v -0.96379 h -12.39161 z m 15.1453,-2.89138 v 5.78275 h 0.96379 l 0.96379,-3.85516 v -1.92759 z m 23.26873,2.89138 c 2.89138,0 4.54359,-1.65222 4.54359,-4.13054 v -3.57979 c 0,-2.47833 -1.65221,-4.13054 -4.54359,-4.13054 h -7.02191 v -5.92043 h 9.91329 l 0.55073,-0.55074 v -0.96379 h -12.3916 v 19.27583 z m -7.02191,-1.51453 v -8.81181 h 7.02191 c 1.51453,0 2.61601,1.10148 2.61601,2.61601 v 3.57979 c 0,1.51453 -1.10148,2.61601 -2.61601,2.61601 z m 24.92089,1.7899 c 2.89137,0 4.54359,-1.65222 4.54359,-4.13054 v -11.5655 c 0,-2.47832 -1.65222,-4.13053 -4.54359,-4.13053 h -4.95664 c -2.89138,0 -4.54359,1.65221 -4.54359,4.13053 v 11.5655 c 0,2.47832 1.65221,4.13054 4.54359,4.13054 z m -4.95664,-1.51453 c -1.51453,0 -2.61601,-1.10148 -2.61601,-2.61601 v -11.5655 c 0,-1.51453 1.10148,-2.616 2.61601,-2.616 h 4.95664 c 1.51453,0 2.616,1.10147 2.616,2.616 v 11.5655 c 0,1.51453 -1.10147,2.61601 -2.616,2.61601 z m 18.7251,1.51453 c 2.89138,0 4.54359,-1.65222 4.54359,-4.13054 v -15.42066 h -1.92758 v 15.42066 c 0,1.51453 -1.10148,2.61601 -2.61601,2.61601 h -6.74654 v 1.51453 z m 11.84085,-19.5512 -1.37684,15.42066 c -0.13769,1.65222 -1.10148,2.61601 -2.34064,2.61601 h -0.55074 v 1.51453 h 0.55074 c 2.61601,0 4.04793,-1.51453 4.26822,-4.13054 l 1.23916,-13.90613 h 7.84802 v 17.7613 h 1.92758 v -19.27583 z m 16.7975,19.27583 h 12.3916 v -1.51453 h -10.46402 v -7.57265 h 8.12339 v -1.51453 h -8.12339 v -7.15959 h 9.91329 l 0.55073,-0.55074 v -0.96379 h -12.3916 z m 15.9714,-19.27583 v 19.27583 h 1.92759 v -6.60886 h 6.60885 c 2.89138,0 4.54359,-1.65221 4.54359,-4.13053 v -4.40591 c 0,-2.47832 -1.65221,-4.13053 -4.54359,-4.13053 z m 8.53644,1.51453 c 1.51453,0 2.61601,1.10147 2.61601,2.616 v 4.40591 c 0,1.51453 -1.10148,2.616 -2.61601,2.616 h -6.60885 v -9.63791 z m 11.15241,17.7613 9.36254,-16.65983 h 0.13769 l -0.27537,3.99285 v 12.66698 h 1.92758 v -19.27583 h -2.34064 l -9.36254,16.65982 h -0.13769 l 0.27537,-3.99285 v -12.66697 h -1.92758 v 19.27583 z m 15.55835,-2.89138 v 5.78275 h 0.96379 l 0.96379,-3.85516 v -1.92759 z"
         id="path4" />
      <path
         style="text-align:start;text-anchor:start"
         d="m 184.34348,421.52639 v -19.27583 h -1.92758 v 17.7613 h -8.39876 v -17.7613 h -1.92758 v 17.7613 h -8.39875 v -17.7613 h -1.92759 v 19.27583 z m 5.23202,-19.27583 v 19.27583 h 1.92758 v -17.7613 h 9.63792 v 17.7613 h 1.92758 v -19.27583 z m 27.81228,19.5512 c 2.89137,0 4.54358,-1.65222 4.54358,-4.13054 v -11.5655 c 0,-2.47832 -1.65221,-4.13053 -4.54358,-4.13053 h -4.95665 c -2.89137,0 -4.54358,1.65221 -4.54358,4.13053 v 11.5655 c 0,2.47832 1.65221,4.13054 4.54358,4.13054 z m -4.95665,-1.51453 c -1.51453,0 -2.616,-1.10148 -2.616,-2.61601 v -11.5655 c 0,-1.51453 1.10147,-2.616 2.616,-2.616 h 4.95665 c 1.51452,0 2.616,1.10147 2.616,2.616 v 11.5655 c 0,1.51453 -1.10148,2.61601 -2.616,2.61601 z m 14.31919,-18.03667 v 19.27583 h 1.92758 v -6.60886 h 6.60886 c 2.89137,0 4.54359,-1.65221 4.54359,-4.13053 v -4.40591 c 0,-2.47832 -1.65222,-4.13053 -4.54359,-4.13053 z m 8.53644,1.51453 c 1.51453,0 2.61601,1.10147 2.61601,2.616 v 4.40591 c 0,1.51453 -1.10148,2.616 -2.61601,2.616 h -6.60886 v -9.63791 z m 8.81178,17.7613 h 12.39161 v -1.51453 h -10.46403 v -7.57265 h 8.12339 v -1.51453 h -8.12339 v -7.15959 h 9.91329 l 0.55074,-0.55074 v -0.96379 h -12.39161 z m 21.89183,-17.7613 h 5.50738 l 0.55074,-0.55074 v -0.96379 h -14.04382 v 1.51453 h 6.05812 v 17.7613 h 1.92758 z m 11.56548,17.7613 9.36255,-16.65983 h 0.13768 l -0.27536,3.99285 v 12.66698 h 1.92758 v -19.27583 h -2.34064 l -9.36254,16.65982 h -0.13769 l 0.27537,-3.99285 v -12.66697 h -1.92758 v 19.27583 z m 15.55836,-2.89138 v 5.78275 h 0.96379 l 0.96379,-3.85516 v -1.92759 z m 20.9281,-7.57265 h -4.68128 v -8.8118 h -1.92758 v 19.27583 h 1.92758 v -8.9495 h 4.68128 l 5.36969,8.9495 h 1.7899 v -0.96379 l -5.50738,-8.81181 4.81896,-8.53644 v -0.96379 h -1.7899 z m 8.67409,-8.8118 v 0.96379 l 7.18713,14.1815 -0.27537,0.55074 c -0.74349,1.51453 -1.54206,2.34064 -2.86383,2.34064 h -1.56961 v 1.51453 h 1.56961 c 2.56093,0 4.02038,-1.51453 5.03925,-3.85517 l 6.33349,-14.73224 v -0.96379 h -1.7899 l -5.3697,12.94234 h -0.13768 l -6.33349,-12.94234 z m 21.75415,1.51453 h 5.50738 l 0.55074,-0.55074 v -0.96379 h -11.84086 v 1.51453 h 3.85516 v 17.7613 h 1.92758 v -10.46403 h 6.74654 c 1.51453,0 2.61601,1.10148 2.61601,2.61601 v 7.84802 h 1.92758 v -7.84802 c 0,-2.47832 -1.65221,-4.13053 -4.54359,-4.13053 h -6.74654 z m 15.83375,-1.51453 v 19.27583 h 1.92758 v -8.9495 h 9.63792 v 8.9495 h 1.92758 v -19.27583 h -1.92758 v 8.8118 h -9.63792 v -8.8118 z m 27.81227,19.5512 c 2.89138,0 4.54359,-1.65222 4.54359,-4.13054 v -11.5655 c 0,-2.47832 -1.65221,-4.13053 -4.54359,-4.13053 h -4.95664 c -2.89137,0 -4.54359,1.65221 -4.54359,4.13053 v 11.5655 c 0,2.47832 1.65222,4.13054 4.54359,4.13054 z m -4.95664,-1.51453 c -1.51453,0 -2.616,-1.10148 -2.616,-2.61601 v -11.5655 c 0,-1.51453 1.10147,-2.616 2.616,-2.616 h 4.95664 c 1.51453,0 2.61601,1.10147 2.61601,2.616 v 11.5655 c 0,1.51453 -1.10148,2.61601 -2.61601,2.61601 z m 28.63839,-16.52214 c 1.51453,0 2.61601,1.10147 2.61601,2.616 v 1.92758 c 0,1.51453 -1.10148,2.61601 -2.61601,2.61601 h -4.54358 v 1.51453 h 4.81895 c 1.51453,0 2.61601,1.10148 2.61601,2.61601 v 2.34063 c 0,1.51453 -1.10148,2.61601 -2.61601,2.61601 h -8.53644 v 1.51453 h 8.53644 c 2.89138,0 4.54359,-1.65222 4.54359,-4.13054 v -2.34063 c 0,-3.02906 -3.02906,-3.44212 -3.02906,-3.44212 v -0.13768 c 0,0 2.75369,-0.41306 2.75369,-3.16675 v -1.92758 c 0,-2.47832 -1.65221,-4.13053 -4.54359,-4.13053 h -7.84801 v 0.96379 l 0.55074,0.55074 z m 9.22488,-1.51453 v 19.27583 h 9.08718 c 2.89137,0 4.54359,-1.65222 4.54359,-4.13054 v -2.47832 c 0,-2.89137 -3.02906,-3.44211 -3.02906,-3.44211 v -0.13769 c 0,0 2.20295,-0.55073 2.20295,-3.16674 v -1.7899 c 0,-2.47832 -1.65221,-4.13053 -4.54359,-4.13053 z m 1.92758,17.7613 v -7.71033 h 7.1596 c 1.51453,0 2.616,1.10147 2.616,2.616 v 2.47832 c 0,1.51453 -1.10147,2.61601 -2.616,2.61601 z m 6.33349,-16.24677 c 1.51453,0 2.61601,1.10147 2.61601,2.616 v 1.7899 c 0,1.51453 -1.10148,2.61601 -2.61601,2.61601 h -6.33349 v -7.02191 z m 18.7251,18.03667 c 2.89137,0 4.54358,-1.65222 4.54358,-4.13054 v -11.5655 c 0,-2.47832 -1.65221,-4.13053 -4.54358,-4.13053 h -4.95665 c -2.89137,0 -4.54359,1.65221 -4.54359,4.13053 v 11.5655 c 0,2.47832 1.65222,4.13054 4.54359,4.13054 z m -4.95665,-1.51453 c -1.51453,0 -2.616,-1.10148 -2.616,-2.61601 v -11.5655 c 0,-1.51453 1.10147,-2.616 2.616,-2.616 h 4.95665 c 1.51452,0 2.616,1.10147 2.616,2.616 v 11.5655 c 0,1.51453 -1.10148,2.61601 -2.616,2.61601 z m 14.31918,-18.03667 v 19.27583 h 1.92758 v -8.9495 h 9.63791 v 8.9495 h 1.92759 v -19.27583 h -1.92759 v 8.8118 h -9.63791 v -8.8118 z m 27.81227,19.5512 c 2.89137,0 4.54359,-1.65222 4.54359,-4.13054 v -11.5655 c 0,-2.47832 -1.65222,-4.13053 -4.54359,-4.13053 h -4.95664 c -2.89138,0 -4.54359,1.65221 -4.54359,4.13053 v 11.5655 c 0,2.47832 1.65221,4.13054 4.54359,4.13054 z m -4.95664,-1.51453 c -1.51453,0 -2.61601,-1.10148 -2.61601,-2.61601 v -11.5655 c 0,-1.51453 1.10148,-2.616 2.61601,-2.616 h 4.95664 c 1.51453,0 2.61601,1.10147 2.61601,2.616 v 11.5655 c 0,1.51453 -1.10148,2.61601 -2.61601,2.61601 z m 24.64555,1.23916 9.36255,-16.65983 h 0.13769 l -0.27537,3.99285 v 12.66698 h 1.92758 v -19.27583 h -2.34064 l -9.36254,16.65982 h -0.13769 l 0.27537,-3.99285 v -12.66697 h -1.92758 v 19.27583 z m 23.95713,-15.1453 v 11.01476 c 0,2.47832 1.65221,4.13054 4.54359,4.13054 h 7.9857 v -1.51453 h -7.9857 c -1.51453,0 -2.61601,-1.10148 -2.61601,-2.61601 v -11.01476 c 0,-1.51453 1.10148,-2.616 2.61601,-2.616 h 7.43496 l 0.55074,-0.55074 v -0.96379 h -7.9857 c -2.89138,0 -4.54359,1.65221 -4.54359,4.13053 z m 16.1091,-4.13053 v 19.27583 h 9.08718 c 2.89137,0 4.54358,-1.65222 4.54358,-4.13054 v -2.47832 c 0,-2.89137 -3.02905,-3.44211 -3.02905,-3.44211 v -0.13769 c 0,0 2.20295,-0.55073 2.20295,-3.16674 v -1.7899 c 0,-2.47832 -1.65222,-4.13053 -4.54359,-4.13053 z m 1.92758,17.7613 v -7.71033 h 7.1596 c 1.51453,0 2.616,1.10147 2.616,2.616 v 2.47832 c 0,1.51453 -1.10147,2.61601 -2.616,2.61601 z m 6.33349,-16.24677 c 1.51453,0 2.616,1.10147 2.616,2.616 v 1.7899 c 0,1.51453 -1.10147,2.61601 -2.616,2.61601 h -6.33349 v -7.02191 z m 9.63788,17.7613 h 12.39161 v -1.51453 h -10.46402 v -7.57265 h 8.12338 v -1.51453 h -8.12338 v -7.15959 h 9.91328 l 0.55074,-0.55074 v -0.96379 h -12.39161 z m 29.87756,-17.7613 h 5.50738 l 0.55074,-0.55074 v -0.96379 h -14.04382 v 1.51453 h 6.05812 v 17.7613 h 1.92758 z m 8.26106,2.616 v 11.01476 c 0,2.47832 1.65221,4.13054 4.54359,4.13054 h 7.9857 v -1.51453 h -7.9857 c -1.51453,0 -2.61601,-1.10148 -2.61601,-2.61601 v -11.01476 c 0,-1.51453 1.10148,-2.616 2.61601,-2.616 h 7.43496 l 0.55074,-0.55074 v -0.96379 h -7.9857 c -2.89138,0 -4.54359,1.65221 -4.54359,4.13053 z m 18.17433,-4.13053 -1.37684,15.42066 c -0.13769,1.65221 -1.10148,2.61601 -2.34064,2.61601 h -0.55074 v 1.51453 h 0.55074 c 2.61601,0 4.04793,-1.51453 4.26822,-4.13054 l 1.23916,-13.90613 h 7.84802 v 17.7613 h 1.92758 v -19.27583 z m 15.97139,16.38445 v 2.89138 h 1.92758 v -2.89138 z"
         id="path5" />
    </g>
  </g>
</svg>
