<?xml version="1.0" encoding="UTF-8" standalone="no"?>
<!-- Created with Inkscape (http://www.inkscape.org/) -->

<svg
   width="800"
   height="850"
   viewBox="0 0 800 850.00003"
   version="1.1"
   id="svg1"
   xml:space="preserve"
   xmlns="http://www.w3.org/2000/svg"
   xmlns:svg="http://www.w3.org/2000/svg"><defs
     id="defs1" /><g
     id="layer2"
     transform="translate(-3241.8228,-902.95705)"><path
       d="m 3424.675,1121.3664 q -1.5643,0 -3.0765,-0.365 -1.5122,-0.365 -2.8158,-1.1993 -1.2514,-0.8865 -2.19,-2.1379 -0.9386,-1.2515 -1.5122,-2.6594 -0.5214,-1.46 -0.73,-2.9722 -0.2086,-1.5643 -0.2086,-3.1286 0,-2.8157 0.3129,-5.5794 0.3129,-2.8157 0.9386,-5.5793 0.6257,-2.7636 1.825,-5.3187 1.2515,-2.555 3.1286,-4.6408 1.9294,-2.0857 4.3801,-3.4936 2.5029,-1.46 5.2665,-2.0858 l 1.7208,5.7359 q -1.8772,0.6257 -3.5458,1.7728 -1.6165,1.1472 -2.8679,2.7115 -1.1993,1.5643 -1.9293,3.4415 -0.73,1.825 -1.1472,3.7543 0.4172,-0.6778 0.9908,-1.3035 0.5735,-0.6258 1.3035,-1.0429 0.7301,-0.4172 1.5122,-0.5736 0.8343,-0.2086 1.6686,-0.2086 1.3557,0 2.6072,0.5736 1.2514,0.5736 2.1379,1.6165 0.8864,0.9907 1.4079,2.2943 0.5214,1.2514 0.8343,2.555 0.3128,1.3036 0.4171,2.6594 0.1043,1.3557 0.1043,2.7114 0,1.5643 -0.2086,3.1286 -0.2085,1.5122 -0.7821,2.9722 -0.5215,1.4079 -1.4601,2.6594 -0.9385,1.2514 -2.2421,2.1379 -1.2515,0.8343 -2.7636,1.1993 -1.5122,0.365 -3.0765,0.365 z m 0,-5.9444 q 0.6778,0 1.2514,-0.365 0.6257,-0.365 0.9908,-0.8865 0.365,-0.5735 0.5735,-1.1993 0.2608,-0.6778 0.365,-1.3557 0.1043,-0.6779 0.1565,-1.3557 0.052,-0.6779 0.052,-1.3558 0,-0.6778 -0.052,-1.3557 -0.052,-0.6779 -0.1565,-1.3036 -0.1042,-0.6779 -0.365,-1.3036 -0.2085,-0.6779 -0.5735,-1.2514 -0.3651,-0.5736 -0.9908,-0.8865 -0.5736,-0.365 -1.2514,-0.365 -0.8343,0 -1.5122,0.5214 -0.6779,0.5215 -1.0429,1.3036 -0.365,0.73 -0.5735,1.5643 -0.1565,0.7822 -0.2086,1.6165 -0.052,0.365 -0.052,0.73 0,0.365 0,0.73 0,0.6779 0,1.3558 0.052,0.6778 0.1565,1.3557 0.1564,0.6779 0.365,1.3557 0.2607,0.6258 0.6257,1.1993 0.365,0.5215 0.9386,0.8865 0.6257,0.365 1.3036,0.365 z m 26.2283,5.9444 q -1.4079,0 -2.8158,-0.2608 -1.3557,-0.2085 -2.6593,-0.7821 -1.2515,-0.6257 -2.2944,-1.6165 -1.0428,-0.9907 -1.7207,-2.19 -0.6779,-1.2514 -0.9907,-2.6072 -0.3129,-1.4079 -0.3129,-2.8157 v -0.3129 h 7.1437 v 0.1564 q 0,0.7822 0.1564,1.6165 0.2086,0.7821 0.6779,1.46 0.4693,0.6779 1.1993,1.0429 0.7822,0.365 1.6165,0.365 0.8864,0 1.6686,-0.4693 0.7821,-0.4693 1.1993,-1.1993 0.4693,-0.7822 0.6257,-1.6686 0.1564,-0.8865 0.1564,-1.7729 0,-0.7822 -0.1564,-1.5643 -0.1043,-0.8343 -0.4172,-1.5643 -0.3128,-0.73 -0.8864,-1.3036 -0.5214,-0.6257 -1.2515,-0.9907 -0.73,-0.365 -1.5121,-0.4693 -0.7822,-0.1043 -1.6165,-0.1043 v -5.9444 q 0.73,0 1.4079,-0.052 0.73,-0.1043 1.3557,-0.4693 0.6258,-0.365 1.0951,-0.8865 0.4692,-0.5736 0.73,-1.2514 0.2607,-0.6779 0.3128,-1.3558 0.1043,-0.73 0.1043,-1.46 0,-0.7821 -0.1043,-1.5122 -0.1043,-0.7821 -0.4171,-1.46 -0.3129,-0.73 -0.9386,-1.2514 -0.5736,-0.5215 -1.3557,-0.5215 -0.7301,0 -1.3558,0.4693 -0.6257,0.4693 -0.9386,1.1472 -0.3128,0.6257 -0.4171,1.4079 -0.1043,0.73 -0.1043,1.46 v 0.1564 h -7.1437 v -0.4171 q 0,-1.3558 0.2607,-2.6594 0.3129,-1.3557 0.8865,-2.555 0.5736,-1.1993 1.5121,-2.19 0.9386,-0.9908 2.0858,-1.6165 1.1993,-0.6257 2.5029,-0.8864 1.3557,-0.2608 2.7115,-0.2608 1.3557,0 2.7114,0.2608 1.3558,0.2607 2.5029,0.9386 1.1993,0.6778 2.0858,1.7207 0.9386,0.9907 1.5121,2.2422 0.5736,1.2514 0.8343,2.6072 0.3129,1.3036 0.3129,2.6593 0,1.2514 -0.2607,2.5029 -0.2607,1.2514 -0.8343,2.3986 -0.5736,1.1472 -1.46,2.0857 -0.8343,0.9386 -1.9294,1.6165 1.2515,0.6779 2.2422,1.6686 1.0429,0.9907 1.7208,2.2422 0.73,1.1993 1.0428,2.6072 0.3129,1.3557 0.3129,2.7636 0,1.46 -0.3129,2.8679 -0.3128,1.4079 -0.9907,2.7115 -0.6257,1.3035 -1.6686,2.3464 -0.9907,1.0429 -2.2943,1.7208 -1.2515,0.6778 -2.6593,0.9385 -1.4079,0.2608 -2.8679,0.2608 z m 14.6002,-0.4172 7.1958,-38.3256 h 8.2387 l 7.1959,38.3256 h -7.248 l -1.0429,-7.613 h -6.0487 l -1.0428,7.613 z m 13.5052,-13.5573 -1.6164,-11.9931 q -0.1565,-0.9386 -0.3129,-1.8772 -0.1043,-0.9907 -0.2607,-1.9814 -0.1565,0.9907 -0.3129,1.9814 -0.1043,0.9386 -0.2607,1.8772 l -1.6165,11.9931 z"
       id="text98"
       style="font-weight:900;font-size:52.1437px;line-height:51.3188px;font-family:'Iosevka SS15';-inkscape-font-specification:'Iosevka SS15, Heavy';text-align:center;text-anchor:middle;stroke-width:0.469294"
       aria-label="63A" /><g
       id="g91"
       transform="matrix(0.34914252,0,0,0.34914252,3217.6447,874.83416)"><path
         style="fill:#cccccc;fill-opacity:1;stroke:none;stroke-width:3;stroke-dasharray:none;stroke-opacity:1"
         d="M 193.81467,259.94709 214.2161,412.78575 242.94218,360.78112 221.83809,251.08295 Z"
         id="path15" /><path
         style="display:inline;fill:#f8f8f8;fill-opacity:1;stroke:none;stroke-width:3;stroke-dasharray:none;stroke-opacity:1"
         d="m 570.08905,275.35738 -61.83911,-61.22214 -77.94801,-15.26894 -94.91953,9.60569 -87.28592,40.22403 -41.59823,69.96693 3.67673,57.55939 53.4038,52.22253 35.98053,24.96801 79.84997,1.09632 98.0769,-16.95163 60.78586,-48.77683 42.26362,-71.15831 z"
         id="path13" /><path
         style="fill:#cccccc;fill-opacity:1;stroke:none;stroke-width:3;stroke-dasharray:none;stroke-opacity:1"
         d="m 611.11582,479.56995 13.55179,-20.82647 24.81539,-5.29633 -19.84935,-150.32884 -29.14647,-11.02714 -20.20981,31.43086 -19.45739,51.82392 27.71824,14.08512 14.47159,91.61811 z"
         id="path4" /><path
         style="fill:#e7e7e7;fill-opacity:1;stroke:none;stroke-width:3;stroke-dasharray:none;stroke-opacity:1"
         d="m 148.25502,354.49784 37.32758,182.05892 c 0,0 5.09756,19.3457 32.12774,42.64743 27.03018,23.30172 73.15908,36.82854 125.33823,47.43801 52.17914,10.60947 136.10211,-5.19402 186.68406,-28.66633 50.58196,-23.47231 88.27171,-65.57777 88.27171,-65.57777 l -21.00555,-143.96306 -22.29618,2.16371 -95.715,57.27117 -87.72197,16.34551 -120.39067,-9.65228 -74.05683,-47.24243 -33.9263,-40.07745 z"
         id="path3" /><path
         style="fill:none;stroke:#a7a7a7;stroke-width:3;stroke-dasharray:none;stroke-opacity:1"
         d="m 602.78059,308.25199 20.40143,152.83866"
         id="path5" /><path
         style="fill:#9a9a9a;fill-opacity:1;stroke:none;stroke-width:3;stroke-dasharray:none;stroke-opacity:1"
         d="m 520.1261,387.331 c 0,0 -24.74104,-20.93319 -47.81551,-27.75705 -23.07446,-6.82387 -80.23957,-6.0384 -114.64282,7.38933 -34.40326,13.42773 -67.13273,49.35871 -69.25809,54.73216 l -0.813,15.8285 119.40263,7.46588 94.42826,-36.88715 z"
         id="path6" /><path
         d="m 419.38281,171.55664 c -8.61482,0.008 -17.11073,0.22039 -25.38281,0.57227 -76.28533,3.24499 -176.39253,53.40085 -201.82031,87.79492 l 21.13086,7.6289 -33.96875,64.95508 -27.30469,-2.46875 c 0,0 -10.32185,21.72024 7.54492,57.90821 17.86676,36.18795 64.564,65.96259 129.8457,84.4746 65.28171,18.51202 151.58526,2.05267 202.73243,-18.20117 51.14718,-20.25384 104.96093,-65.37109 104.96093,-65.37109 l -26.2539,-18.96289 31.27734,-61.34375 27.98242,-3.52344 c 0,0 -6.46551,-34.52889 -47.9707,-82.04101 -36.31704,-41.57311 -102.46969,-51.48036 -162.77344,-51.42188 z m -3.21875,40.45508 c 68.61499,0.92181 126.90177,27.44482 144.48047,68.68359 20.08995,47.13003 -35.62422,102.57191 -44.96289,108.44336 -9.33867,5.87146 -73.70278,43.05363 -142.79883,45.22266 -69.09605,2.16904 -116.15567,-19.71755 -142.30078,-49.51563 -24.25188,-27.64035 -18.36981,-64.5911 -1.04492,-88.64648 21.47202,-29.81363 75.59628,-75.4241 156.67773,-82.98438 10.13518,-0.94503 20.14708,-1.33481 29.94922,-1.20312 z"
         style="display:inline;fill:#ff8e05;fill-opacity:1;stroke:none;stroke-width:3"
         id="path14" /></g><g
       id="g90"
       transform="matrix(0.34914254,0,0,0.34914254,3462.1098,874.83416)"><path
         style="fill:#cccccc;fill-opacity:1;stroke:none;stroke-width:3;stroke-dasharray:none;stroke-opacity:1"
         d="m 1018.566,259.94709 20.4014,152.83866 28.7261,-52.00463 -21.1041,-109.69817 z"
         id="path21" /><path
         style="display:inline;fill:#f8f8f8;fill-opacity:1;stroke:none;stroke-width:3;stroke-dasharray:none;stroke-opacity:1"
         d="m 1394.8404,275.35738 -61.8391,-61.22214 -77.948,-15.26894 -94.9196,9.60569 -87.2859,40.22403 -41.5982,69.96693 3.6767,57.55939 53.4038,52.22253 35.9805,24.96801 79.85,1.09632 98.0769,-16.95163 60.7859,-48.77683 42.2636,-71.15831 z"
         id="path22" /><path
         style="fill:#cccccc;fill-opacity:1;stroke:none;stroke-width:3;stroke-dasharray:none;stroke-opacity:1"
         d="m 1435.8672,479.56995 13.5517,-20.82647 24.8154,-5.29633 -19.8493,-150.32884 -29.1465,-11.02714 -20.2098,31.43086 -19.4574,51.82392 27.7183,14.08512 14.4715,91.61811 z"
         id="path23" /><path
         style="fill:#e7e7e7;fill-opacity:1;stroke:none;stroke-width:3;stroke-dasharray:none;stroke-opacity:1"
         d="m 973.00635,354.49784 37.32755,182.05892 c 0,0 5.0976,19.3457 32.1278,42.64743 27.0302,23.30172 73.1591,36.82854 125.3382,47.43801 52.1791,10.60947 136.1021,-5.19402 186.6841,-28.66633 50.5819,-23.47231 88.2717,-65.57777 88.2717,-65.57777 l -21.0056,-143.96306 -22.2962,2.16371 -95.715,57.27117 -87.7219,16.34551 -120.3907,-9.65228 -74.0568,-47.24243 -33.92633,-40.07745 z"
         id="path24" /><path
         style="fill:none;stroke:#a7a7a7;stroke-width:3;stroke-dasharray:none;stroke-opacity:1"
         d="m 1427.5319,308.25199 20.4015,152.83866"
         id="path25" /><path
         style="fill:#9a9a9a;fill-opacity:1;stroke:none;stroke-width:3;stroke-dasharray:none;stroke-opacity:1"
         d="m 1344.8774,387.331 c 0,0 -24.741,-20.93319 -47.8155,-27.75705 -23.0744,-6.82387 -80.2395,-6.0384 -114.6428,7.38933 -34.4033,13.42773 -67.1327,49.35871 -69.2581,54.73216 l -0.813,15.8285 119.4026,7.46588 94.4283,-36.88715 z"
         id="path26" /><path
         d="m 1244.1341,171.55664 c -8.6148,0.008 -17.1107,0.22039 -25.3828,0.57227 -76.2853,3.24499 -176.3925,53.40085 -201.8203,87.79492 l 21.1309,7.6289 -33.9688,64.95508 -27.30466,-2.46875 c 0,0 -10.32185,21.72024 7.54492,57.90821 17.86674,36.18795 64.56404,65.96259 129.84574,84.4746 65.2817,18.51202 151.5852,2.05267 202.7324,-18.20117 51.1472,-20.25384 104.9609,-65.37109 104.9609,-65.37109 l -26.2539,-18.96289 31.2774,-61.34375 27.9824,-3.52344 c 0,0 -6.4655,-34.52889 -47.9707,-82.04101 -36.3171,-41.57311 -102.4697,-51.48036 -162.7735,-51.42188 z m -3.2187,40.45508 c 68.615,0.92181 126.9018,27.44482 144.4805,68.68359 20.0899,47.13003 -35.6243,102.57191 -44.9629,108.44336 -9.3387,5.87146 -73.7028,43.05363 -142.7989,45.22266 -69.096,2.16904 -116.1556,-19.71755 -142.3007,-49.51563 -24.2519,-27.64035 -18.3698,-64.5911 -1.045,-88.64648 21.4721,-29.81363 75.5963,-75.4241 156.6778,-82.98438 10.1352,-0.94503 20.1471,-1.33481 29.9492,-1.20312 z"
         style="display:inline;fill:#4c4c4c;fill-opacity:1;stroke:none;stroke-width:3"
         id="path27" /></g><g
       id="g92"
       transform="matrix(0.34914254,0,0,0.34914254,3476.7224,575.97643)"><path
         style="fill:#cccccc;fill-opacity:1;stroke:none;stroke-width:3;stroke-dasharray:none;stroke-opacity:1"
         d="m 200.29145,1115.9234 20.4014,152.8386 28.7261,-52.0046 -21.1041,-109.6982 z"
         id="path65" /><path
         style="display:inline;fill:#f8f8f8;fill-opacity:1;stroke:none;stroke-width:3;stroke-dasharray:none;stroke-opacity:1"
         d="m 576.56585,1131.3336 -61.8391,-61.2221 -77.948,-15.2689 -94.9196,9.6057 -87.2859,40.224 -41.5982,69.9669 3.6767,57.5594 53.4038,52.2225 35.9805,24.968 79.85,1.0964 98.0769,-16.9517 60.7859,-48.7768 42.2636,-71.1583 z"
         id="path66" /><path
         style="fill:#cccccc;fill-opacity:1;stroke:none;stroke-width:3;stroke-dasharray:none;stroke-opacity:1"
         d="m 617.59265,1335.5462 13.5517,-20.8265 24.8154,-5.2963 -19.8493,-150.3288 -29.1465,-11.0272 -20.2098,31.4309 -19.4574,51.8239 27.7183,14.0851 14.4715,91.6181 z"
         id="path67" /><path
         style="fill:#e7e7e7;fill-opacity:1;stroke:none;stroke-width:3;stroke-dasharray:none;stroke-opacity:1"
         d="m 154.7318,1210.4741 37.32755,182.0589 c 0,0 5.0976,19.3457 32.1278,42.6475 27.0302,23.3017 73.1591,36.8285 125.3382,47.438 52.1791,10.6094 136.1021,-5.1941 186.6841,-28.6664 50.5819,-23.4723 88.2717,-65.5777 88.2717,-65.5777 l -21.0056,-143.9631 -22.2962,2.1637 -95.715,57.2712 -87.7219,16.3455 -120.3907,-9.6523 -74.0568,-47.2424 -33.92633,-40.0775 z"
         id="path68" /><path
         style="fill:none;stroke:#a7a7a7;stroke-width:3;stroke-dasharray:none;stroke-opacity:1"
         d="m 609.25735,1164.2283 20.4015,152.8386"
         id="path69" /><path
         style="fill:#9a9a9a;fill-opacity:1;stroke:none;stroke-width:3;stroke-dasharray:none;stroke-opacity:1"
         d="m 526.60285,1243.3073 c 0,0 -24.741,-20.9332 -47.8155,-27.7571 -23.0744,-6.8239 -80.2395,-6.0384 -114.6428,7.3893 -34.4033,13.4278 -67.1327,49.3588 -69.2581,54.7322 l -0.813,15.8285 119.4026,7.4659 94.4283,-36.8872 z"
         id="path70" /><path
         d="m 425.85955,1027.5329 c -8.6148,0.01 -17.1107,0.2204 -25.3828,0.5723 -76.2853,3.245 -176.3925,53.4008 -201.8203,87.7949 l 21.1309,7.6289 -33.9688,64.9551 -27.30466,-2.4688 c 0,0 -10.32185,21.7203 7.54492,57.9082 17.86674,36.188 64.56404,65.9626 129.84574,84.4746 65.2817,18.5121 151.5852,2.0527 202.7324,-18.2011 51.1472,-20.2539 104.9609,-65.3711 104.9609,-65.3711 l -26.2539,-18.9629 31.2774,-61.3438 27.9824,-3.5234 c 0,0 -6.4655,-34.5289 -47.9707,-82.041 -36.3171,-41.5731 -102.4697,-51.4804 -162.7735,-51.4219 z m -3.2187,40.4551 c 68.615,0.9218 126.9018,27.4448 144.4805,68.6836 20.0899,47.13 -35.6243,102.5719 -44.9629,108.4433 -9.3387,5.8715 -73.7028,43.0537 -142.7989,45.2227 -69.096,2.169 -116.1556,-19.7176 -142.3007,-49.5156 -24.2519,-27.6404 -18.3698,-64.5911 -1.045,-88.6465 21.4721,-29.8136 75.5963,-75.4241 156.6778,-82.9844 10.1352,-0.945 20.1471,-1.3348 29.9492,-1.2031 z"
         style="display:inline;fill:#bebebe;fill-opacity:1;stroke:none;stroke-width:3"
         id="path71" /></g><path
       d="m 3693.7972,1121.3664 q -1.3557,0 -2.6593,-0.2608 -1.3036,-0.2085 -2.5029,-0.7821 -1.1993,-0.6257 -2.19,-1.5643 -0.9386,-0.9386 -1.6165,-2.0858 -0.6257,-1.1471 -0.9907,-2.3986 -0.3129,-1.3036 -0.4172,-2.6593 h 7.1959 q 0.052,0.6779 0.2085,1.3557 0.2086,0.6779 0.5736,1.2515 0.4172,0.5736 1.0429,0.8864 0.6257,0.3129 1.3557,0.3129 0.6779,0 1.2515,-0.365 0.5736,-0.4172 0.9386,-0.9907 0.365,-0.6258 0.5214,-1.3036 0.2086,-0.6779 0.3129,-1.3558 0.1564,-0.6778 0.1564,-1.3557 0.052,-0.6779 0.052,-1.3558 0,-0.73 -0.052,-1.3557 0,-0.6779 -0.1043,-1.3557 -0.1043,-0.6779 -0.3129,-1.3036 -0.1564,-0.6779 -0.5214,-1.2515 -0.3129,-0.6257 -0.8864,-1.0428 -0.5215,-0.4172 -1.1993,-0.4172 -0.5736,0 -1.1472,0.1564 -0.5214,0.1565 -0.9386,0.5736 -0.365,0.4172 -0.5736,0.9908 -0.2085,0.5214 -0.2085,1.095 h -7.1959 l 0.5215,-5.9444 1.3557,-16.2167 h 16.9988 v 5.9444 h -10.3766 l -0.6257,7.5608 q 0.5736,-0.052 1.095,-0.052 0.5736,-0.052 1.0951,-0.052 1.5643,0 3.0764,0.4172 1.5122,0.365 2.7115,1.2514 1.2515,0.8865 2.1379,2.1901 0.8864,1.3036 1.4079,2.7636 0.5214,1.4079 0.6778,2.9722 0.2086,1.5121 0.2086,3.0764 0,1.5644 -0.2086,3.1287 -0.1564,1.5121 -0.73,2.9722 -0.5214,1.46 -1.46,2.7636 -0.8864,1.2514 -2.1379,2.1379 -1.2514,0.8864 -2.8157,1.2514 -1.5122,0.4172 -3.0244,0.4172 z m 25.9154,0 q -1.46,0 -2.8679,-0.2608 -1.4078,-0.2607 -2.7114,-0.9385 -1.2515,-0.6779 -2.2422,-1.7208 -0.9907,-1.0429 -1.6165,-2.3464 -0.6257,-1.3036 -0.8864,-2.7115 -0.2086,-1.46 -0.2086,-2.8679 v -17.4682 q 0,-1.4078 0.2086,-2.8157 0.2607,-1.46 0.8864,-2.7636 0.6258,-1.3036 1.6165,-2.3465 0.9907,-1.0429 2.2422,-1.7207 1.3036,-0.6779 2.7114,-0.9386 1.4079,-0.2608 2.8679,-0.2608 1.4601,0 2.8679,0.2608 1.4079,0.2607 2.6594,0.9386 1.3036,0.6778 2.2943,1.7207 0.9907,1.0429 1.6165,2.3465 0.6257,1.3036 0.8343,2.7636 0.2607,1.4079 0.2607,2.8157 v 17.4682 q 0,1.4079 -0.2607,2.8679 -0.2086,1.4079 -0.8343,2.7115 -0.6258,1.3035 -1.6165,2.3464 -0.9907,1.0429 -2.2943,1.7208 -1.2515,0.6778 -2.6594,0.9385 -1.4078,0.2608 -2.8679,0.2608 z m 0,-5.9444 q 0.8343,0 1.5644,-0.4172 0.7821,-0.4693 1.1471,-1.1993 0.4172,-0.7821 0.5215,-1.6164 0.1564,-0.8343 0.1564,-1.6686 v -17.4682 q 0,-0.8343 -0.1564,-1.6686 -0.1043,-0.8343 -0.5215,-1.5643 -0.365,-0.7821 -1.1471,-1.1993 -0.7301,-0.4693 -1.5644,-0.4693 -0.8343,0 -1.6164,0.4693 -0.73,0.4172 -1.1472,1.1993 -0.365,0.73 -0.5214,1.5643 -0.1043,0.8343 -0.1043,1.6686 v 17.4682 q 0,0.8343 0.1043,1.6686 0.1564,0.8343 0.5214,1.6164 0.4172,0.73 1.1472,1.1993 0.7821,0.4172 1.6164,0.4172 z m 0,-8.9687 q -0.365,0 -0.6778,-0.1043 -0.3129,-0.1564 -0.5215,-0.4172 -0.1564,-0.3128 -0.2607,-0.6778 -0.052,-0.365 -0.052,-0.6779 v -5.5794 q 0,-0.3128 0.052,-0.6778 0.1043,-0.3651 0.2607,-0.6258 0.2086,-0.3128 0.5215,-0.4171 0.3128,-0.1565 0.6778,-0.1565 0.3651,0 0.6779,0.1565 0.3129,0.1043 0.4693,0.4171 0.2086,0.2607 0.2607,0.6258 0.1043,0.365 0.1043,0.6778 v 5.5794 q 0,0.3129 -0.1043,0.6779 -0.052,0.365 -0.2607,0.6778 -0.1564,0.2608 -0.4693,0.4172 -0.3128,0.1043 -0.6779,0.1043 z m 14.7567,14.4959 7.1958,-38.3256 h 8.2387 l 7.1959,38.3256 h -7.248 l -1.0429,-7.613 h -6.0486 l -1.0429,7.613 z m 13.5052,-13.5573 -1.6164,-11.9931 q -0.1565,-0.9386 -0.3129,-1.8772 -0.1043,-0.9907 -0.2607,-1.9814 -0.1564,0.9907 -0.3129,1.9814 -0.1043,0.9386 -0.2607,1.8772 l -1.6164,11.9931 z"
       id="text99"
       style="font-weight:900;font-size:52.1437px;line-height:51.3188px;font-family:'Iosevka SS15';-inkscape-font-specification:'Iosevka SS15, Heavy';text-align:center;text-anchor:middle;stroke-width:0.469294"
       aria-label="50A" /><path
       d="m 3958.2042,1121.3664 q -1.4079,0 -2.8157,-0.2608 -1.3558,-0.2085 -2.6594,-0.7821 -1.2514,-0.6257 -2.2943,-1.6165 -1.0429,-0.9907 -1.7207,-2.19 -0.6779,-1.2514 -0.9908,-2.6072 -0.3128,-1.4079 -0.3128,-2.8157 v -0.3129 h 7.1437 v 0.1564 q 0,0.7822 0.1564,1.6165 0.2086,0.7821 0.6779,1.46 0.4692,0.6779 1.1993,1.0429 0.7821,0.365 1.6164,0.365 0.8865,0 1.6686,-0.4693 0.7822,-0.4693 1.1993,-1.1993 0.4693,-0.7822 0.6257,-1.6686 0.1565,-0.8865 0.1565,-1.7729 0,-0.7822 -0.1565,-1.5643 -0.1042,-0.8343 -0.4171,-1.5643 -0.3129,-0.73 -0.8865,-1.3036 -0.5214,-0.6257 -1.2514,-0.9907 -0.73,-0.365 -1.5122,-0.4693 -0.7821,-0.1043 -1.6164,-0.1043 v -5.9444 q 0.73,0 1.4079,-0.052 0.73,-0.1043 1.3557,-0.4693 0.6257,-0.365 1.095,-0.8865 0.4693,-0.5736 0.73,-1.2514 0.2607,-0.6779 0.3129,-1.3558 0.1043,-0.73 0.1043,-1.46 0,-0.7821 -0.1043,-1.5122 -0.1043,-0.7821 -0.4172,-1.46 -0.3128,-0.73 -0.9386,-1.2514 -0.5735,-0.5215 -1.3557,-0.5215 -0.73,0 -1.3557,0.4693 -0.6258,0.4693 -0.9386,1.1472 -0.3129,0.6257 -0.4172,1.4079 -0.1042,0.73 -0.1042,1.46 v 0.1564 h -7.1437 v -0.4171 q 0,-1.3558 0.2607,-2.6594 0.3128,-1.3557 0.8864,-2.555 0.5736,-1.1993 1.5122,-2.19 0.9386,-0.9908 2.0857,-1.6165 1.1993,-0.6257 2.5029,-0.8864 1.3558,-0.2608 2.7115,-0.2608 1.3557,0 2.7115,0.2608 1.3557,0.2607 2.5029,0.9386 1.1993,0.6778 2.0857,1.7207 0.9386,0.9907 1.5122,2.2422 0.5736,1.2514 0.8343,2.6072 0.3129,1.3036 0.3129,2.6593 0,1.2514 -0.2608,2.5029 -0.2607,1.2514 -0.8343,2.3986 -0.5735,1.1472 -1.46,2.0857 -0.8343,0.9386 -1.9293,1.6165 1.2514,0.6779 2.2422,1.6686 1.0429,0.9907 1.7207,2.2422 0.73,1.1993 1.0429,2.6072 0.3129,1.3557 0.3129,2.7636 0,1.46 -0.3129,2.8679 -0.3129,1.4079 -0.9907,2.7115 -0.6258,1.3035 -1.6686,2.3464 -0.9908,1.0429 -2.2944,1.7208 -1.2514,0.6778 -2.6593,0.9385 -1.4079,0.2608 -2.8679,0.2608 z m 26.0719,0 q -1.3558,0 -2.6594,-0.2608 -1.3036,-0.2085 -2.5029,-0.7821 -1.1993,-0.6257 -2.19,-1.5643 -0.9386,-0.9386 -1.6165,-2.0858 -0.6257,-1.1471 -0.9907,-2.3986 -0.3128,-1.3036 -0.4171,-2.6593 h 7.1958 q 0.052,0.6779 0.2086,1.3557 0.2085,0.6779 0.5735,1.2515 0.4172,0.5736 1.0429,0.8864 0.6257,0.3129 1.3558,0.3129 0.6778,0 1.2514,-0.365 0.5736,-0.4172 0.9386,-0.9907 0.365,-0.6258 0.5214,-1.3036 0.2086,-0.6779 0.3129,-1.3558 0.1564,-0.6778 0.1564,-1.3557 0.052,-0.6779 0.052,-1.3558 0,-0.73 -0.052,-1.3557 0,-0.6779 -0.1043,-1.3557 -0.1042,-0.6779 -0.3128,-1.3036 -0.1565,-0.6779 -0.5215,-1.2515 -0.3128,-0.6257 -0.8864,-1.0428 -0.5214,-0.4172 -1.1993,-0.4172 -0.5736,0 -1.1472,0.1564 -0.5214,0.1565 -0.9386,0.5736 -0.365,0.4172 -0.5735,0.9908 -0.2086,0.5214 -0.2086,1.095 h -7.1958 l 0.5214,-5.9444 1.3557,-16.2167 h 16.9989 v 5.9444 h -10.3766 l -0.6257,7.5608 q 0.5735,-0.052 1.095,-0.052 0.5736,-0.052 1.095,-0.052 1.5643,0 3.0765,0.4172 1.5121,0.365 2.7114,1.2514 1.2515,0.8865 2.1379,2.1901 0.8865,1.3036 1.4079,2.7636 0.5215,1.4079 0.6779,2.9722 0.2086,1.5121 0.2086,3.0764 0,1.5644 -0.2086,3.1287 -0.1564,1.5121 -0.73,2.9722 -0.5215,1.46 -1.4601,2.7636 -0.8864,1.2514 -2.1378,2.1379 -1.2515,0.8864 -2.8158,1.2514 -1.5122,0.4172 -3.0243,0.4172 z m 14.6002,-0.4172 7.1958,-38.3256 h 8.2387 l 7.1959,38.3256 h -7.248 l -1.0429,-7.613 h -6.0487 l -1.0428,7.613 z m 13.5052,-13.5573 -1.6164,-11.9931 q -0.1565,-0.9386 -0.3129,-1.8772 -0.1043,-0.9907 -0.2607,-1.9814 -0.1565,0.9907 -0.3129,1.9814 -0.1043,0.9386 -0.2607,1.8772 l -1.6165,11.9931 z"
       id="text100"
       style="font-weight:900;font-size:52.1437px;line-height:51.3188px;font-family:'Iosevka SS15';-inkscape-font-specification:'Iosevka SS15, Heavy';text-align:center;text-anchor:middle;stroke-width:0.469294"
       aria-label="35A" /><path
       d="m 3414.2464,1397.7338 v -5.9444 l 9.5423,-13.2445 q 0.6778,-0.9386 1.3557,-1.8772 0.6779,-0.9386 1.2514,-1.9293 0.5736,-0.9907 0.8343,-2.1379 0.3129,-1.1472 0.3129,-2.2943 0,-0.5736 -0.052,-1.1472 -0.052,-0.5736 -0.1565,-1.1471 -0.1043,-0.5736 -0.365,-1.0951 -0.2086,-0.5735 -0.5736,-0.9907 -0.3128,-0.4693 -0.8864,-0.73 -0.5214,-0.2607 -1.095,-0.2607 -0.7822,0 -1.46,0.4171 -0.6779,0.4172 -1.0429,1.095 -0.365,0.6779 -0.5215,1.4601 -0.1042,0.73 -0.1042,1.5121 v 0.1565 h -7.1437 v -0.365 q 0,-1.3558 0.2607,-2.7115 0.3128,-1.3557 0.9386,-2.5551 0.6257,-1.1993 1.5643,-2.19 0.9907,-0.9907 2.19,-1.6164 1.2515,-0.6779 2.6072,-0.8865 1.3557,-0.2607 2.7115,-0.2607 1.46,0 2.8679,0.3129 1.46,0.2607 2.7115,1.0428 1.2514,0.73 2.19,1.8772 0.9386,1.095 1.5122,2.4508 0.5735,1.3036 0.7821,2.7636 0.2086,1.4079 0.2086,2.8679 0,1.6164 -0.4172,3.2329 -0.365,1.6164 -1.1471,3.0765 -0.73,1.4078 -1.6686,2.7636 -0.9386,1.3036 -1.8772,2.6072 l -7.0394,9.803 h 11.9409 v 5.9444 z m 36.3441,0.4171 q -1.3557,0 -2.6593,-0.2607 -1.3036,-0.2086 -2.5029,-0.7822 -1.1993,-0.6257 -2.19,-1.5643 -0.9386,-0.9386 -1.6165,-2.0857 -0.6257,-1.1472 -0.9907,-2.3986 -0.3129,-1.3036 -0.4172,-2.6594 h 7.1958 q 0.052,0.6779 0.2086,1.3558 0.2086,0.6778 0.5736,1.2514 0.4172,0.5736 1.0429,0.8865 0.6257,0.3128 1.3557,0.3128 0.6779,0 1.2515,-0.365 0.5735,-0.4171 0.9385,-0.9907 0.3651,-0.6257 0.5215,-1.3036 0.2086,-0.6779 0.3128,-1.3557 0.1565,-0.6779 0.1565,-1.3558 0.052,-0.6778 0.052,-1.3557 0,-0.73 -0.052,-1.3557 0,-0.6779 -0.1043,-1.3558 -0.1043,-0.6778 -0.3129,-1.3036 -0.1564,-0.6778 -0.5214,-1.2514 -0.3129,-0.6257 -0.8865,-1.0429 -0.5214,-0.4171 -1.1993,-0.4171 -0.5735,0 -1.1471,0.1564 -0.5215,0.1564 -0.9386,0.5736 -0.365,0.4171 -0.5736,0.9907 -0.2086,0.5214 -0.2086,1.095 h -7.1958 l 0.5214,-5.9444 1.3558,-16.2167 h 16.9988 v 5.9444 h -10.3766 l -0.6257,7.5609 q 0.5736,-0.052 1.095,-0.052 0.5736,-0.052 1.095,-0.052 1.5644,0 3.0765,0.4171 1.5122,0.365 2.7115,1.2515 1.2514,0.8864 2.1379,2.19 0.8864,1.3036 1.4079,2.7636 0.5214,1.4079 0.6778,2.9722 0.2086,1.5122 0.2086,3.0765 0,1.5643 -0.2086,3.1286 -0.1564,1.5122 -0.73,2.9722 -0.5214,1.46 -1.46,2.7636 -0.8864,1.2515 -2.1379,2.1379 -1.2514,0.8865 -2.8158,1.2515 -1.5121,0.4171 -3.0243,0.4171 z m 14.6002,-0.4171 7.1959,-38.3257 h 8.2387 l 7.1958,38.3257 h -7.248 l -1.0428,-7.613 h -6.0487 l -1.0429,7.613 z m 13.5053,-13.5574 -1.6165,-11.993 q -0.1564,-0.9386 -0.3128,-1.8772 -0.1043,-0.9908 -0.2608,-1.9815 -0.1564,0.9907 -0.3128,1.9815 -0.1043,0.9386 -0.2607,1.8772 l -1.6165,11.993 z"
       id="text101"
       style="font-weight:900;font-size:52.1437px;line-height:51.3188px;font-family:'Iosevka SS15';-inkscape-font-specification:'Iosevka SS15, Heavy';text-align:center;text-anchor:middle;stroke-width:0.469294"
       aria-label="25A" /><path
       d="m 3683.5249,1397.7338 v -5.9444 l 9.5423,-13.2445 q 0.6779,-0.9386 1.3558,-1.8772 0.6778,-0.9386 1.2514,-1.9293 0.5736,-0.9907 0.8343,-2.1379 0.3129,-1.1472 0.3129,-2.2943 0,-0.5736 -0.052,-1.1472 -0.052,-0.5736 -0.1564,-1.1471 -0.1043,-0.5736 -0.365,-1.0951 -0.2086,-0.5735 -0.5736,-0.9907 -0.3129,-0.4693 -0.8864,-0.73 -0.5215,-0.2607 -1.0951,-0.2607 -0.7821,0 -1.46,0.4171 -0.6779,0.4172 -1.0429,1.095 -0.365,0.6779 -0.5214,1.4601 -0.1043,0.73 -0.1043,1.5121 v 0.1565 h -7.1437 v -0.365 q 0,-1.3558 0.2608,-2.7115 0.3128,-1.3557 0.9385,-2.5551 0.6258,-1.1993 1.5643,-2.19 0.9908,-0.9907 2.1901,-1.6164 1.2514,-0.6779 2.6072,-0.8865 1.3557,-0.2607 2.7114,-0.2607 1.4601,0 2.8679,0.3129 1.4601,0.2607 2.7115,1.0428 1.2515,0.73 2.1901,1.8772 0.9385,1.095 1.5121,2.4508 0.5736,1.3036 0.7822,2.7636 0.2085,1.4079 0.2085,2.8679 0,1.6164 -0.4171,3.2329 -0.365,1.6164 -1.1472,3.0765 -0.73,1.4078 -1.6686,2.7636 -0.9385,1.3036 -1.8771,2.6072 l -7.0394,9.803 h 11.9409 v 5.9444 z m 36.1877,0.4171 q -1.46,0 -2.8679,-0.2607 -1.4078,-0.2607 -2.7114,-0.9386 -1.2515,-0.6779 -2.2422,-1.7207 -0.9907,-1.0429 -1.6165,-2.3465 -0.6257,-1.3036 -0.8864,-2.7115 -0.2086,-1.46 -0.2086,-2.8679 v -17.4681 q 0,-1.4079 0.2086,-2.8158 0.2607,-1.46 0.8864,-2.7636 0.6258,-1.3036 1.6165,-2.3465 0.9907,-1.0428 2.2422,-1.7207 1.3036,-0.6779 2.7114,-0.9386 1.4079,-0.2607 2.8679,-0.2607 1.4601,0 2.8679,0.2607 1.4079,0.2607 2.6594,0.9386 1.3036,0.6779 2.2943,1.7207 0.9907,1.0429 1.6165,2.3465 0.6257,1.3036 0.8343,2.7636 0.2607,1.4079 0.2607,2.8158 v 17.4681 q 0,1.4079 -0.2607,2.8679 -0.2086,1.4079 -0.8343,2.7115 -0.6258,1.3036 -1.6165,2.3465 -0.9907,1.0428 -2.2943,1.7207 -1.2515,0.6779 -2.6594,0.9386 -1.4078,0.2607 -2.8679,0.2607 z m 0,-5.9444 q 0.8343,0 1.5644,-0.4171 0.7821,-0.4693 1.1471,-1.1993 0.4172,-0.7822 0.5215,-1.6165 0.1564,-0.8343 0.1564,-1.6686 v -17.4681 q 0,-0.8343 -0.1564,-1.6686 -0.1043,-0.8343 -0.5215,-1.5643 -0.365,-0.7822 -1.1471,-1.1993 -0.7301,-0.4693 -1.5644,-0.4693 -0.8343,0 -1.6164,0.4693 -0.73,0.4171 -1.1472,1.1993 -0.365,0.73 -0.5214,1.5643 -0.1043,0.8343 -0.1043,1.6686 v 17.4681 q 0,0.8343 0.1043,1.6686 0.1564,0.8343 0.5214,1.6165 0.4172,0.73 1.1472,1.1993 0.7821,0.4171 1.6164,0.4171 z m 0,-8.9687 q -0.365,0 -0.6778,-0.1043 -0.3129,-0.1564 -0.5215,-0.4171 -0.1564,-0.3129 -0.2607,-0.6779 -0.052,-0.365 -0.052,-0.6779 v -5.5793 q 0,-0.3129 0.052,-0.6779 0.1043,-0.365 0.2607,-0.6257 0.2086,-0.3129 0.5215,-0.4172 0.3128,-0.1564 0.6778,-0.1564 0.3651,0 0.6779,0.1564 0.3129,0.1043 0.4693,0.4172 0.2086,0.2607 0.2607,0.6257 0.1043,0.365 0.1043,0.6779 v 5.5793 q 0,0.3129 -0.1043,0.6779 -0.052,0.365 -0.2607,0.6779 -0.1564,0.2607 -0.4693,0.4171 -0.3128,0.1043 -0.6779,0.1043 z m 14.7567,14.496 7.1958,-38.3257 h 8.2387 l 7.1959,38.3257 h -7.248 l -1.0429,-7.613 h -6.0486 l -1.0429,7.613 z m 13.5052,-13.5574 -1.6164,-11.993 q -0.1565,-0.9386 -0.3129,-1.8772 -0.1043,-0.9908 -0.2607,-1.9815 -0.1564,0.9907 -0.3129,1.9815 -0.1043,0.9386 -0.2607,1.8772 l -1.6164,11.993 z"
       id="text102"
       style="font-weight:900;font-size:52.1437px;line-height:51.3188px;font-family:'Iosevka SS15';-inkscape-font-specification:'Iosevka SS15, Heavy';text-align:center;text-anchor:middle;stroke-width:0.469294"
       aria-label="20A" /><path
       d="m 3949.8611,1397.7338 v -5.9444 h 5.9444 v -25.8633 l -4.8494,4.7972 -3.5457,-2.9722 8.3951,-8.343 h 7.1437 v 32.3813 h 5.1622 v 5.9444 z m 35.197,0.4171 q -1.5643,0 -3.0765,-0.365 -1.5121,-0.365 -2.8157,-1.1993 -1.2515,-0.8864 -2.1901,-2.1379 -0.9386,-1.2514 -1.5121,-2.6593 -0.5215,-1.46 -0.73,-2.9722 -0.2086,-1.5643 -0.2086,-3.1286 0,-2.8158 0.3128,-5.5794 0.3129,-2.8158 0.9386,-5.5794 0.6258,-2.7636 1.8251,-5.3186 1.2514,-2.5551 3.1286,-4.6408 1.9293,-2.0858 4.38,-3.4937 2.5029,-1.46 5.2666,-2.0857 l 1.7207,5.7358 q -1.8772,0.6257 -3.5458,1.7729 -1.6164,1.1471 -2.8679,2.7115 -1.1993,1.5643 -1.9293,3.4414 -0.73,1.8251 -1.1471,3.7544 0.4171,-0.6779 0.9907,-1.3036 0.5736,-0.6257 1.3036,-1.0429 0.73,-0.4171 1.5121,-0.5736 0.8343,-0.2085 1.6686,-0.2085 1.3558,0 2.6072,0.5736 1.2515,0.5735 2.1379,1.6164 0.8865,0.9907 1.4079,2.2943 0.5214,1.2515 0.8343,2.5551 0.3129,1.3036 0.4171,2.6593 0.1043,1.3557 0.1043,2.7115 0,1.5643 -0.2085,3.1286 -0.2086,1.5122 -0.7822,2.9722 -0.5214,1.4079 -1.46,2.6593 -0.9386,1.2515 -2.2422,2.1379 -1.2514,0.8343 -2.7636,1.1993 -1.5122,0.365 -3.0765,0.365 z m 0,-5.9444 q 0.6779,0 1.2515,-0.365 0.6257,-0.365 0.9907,-0.8864 0.365,-0.5736 0.5736,-1.1993 0.2607,-0.6779 0.365,-1.3558 0.1043,-0.6778 0.1564,-1.3557 0.052,-0.6779 0.052,-1.3557 0,-0.6779 -0.052,-1.3558 -0.052,-0.6778 -0.1564,-1.3036 -0.1043,-0.6778 -0.365,-1.3036 -0.2086,-0.6778 -0.5736,-1.2514 -0.365,-0.5736 -0.9907,-0.8864 -0.5736,-0.365 -1.2515,-0.365 -0.8343,0 -1.5122,0.5214 -0.6778,0.5214 -1.0428,1.3036 -0.365,0.73 -0.5736,1.5643 -0.1564,0.7821 -0.2086,1.6164 -0.052,0.3651 -0.052,0.7301 0,0.365 0,0.73 0,0.6778 0,1.3557 0.052,0.6779 0.1564,1.3557 0.1564,0.6779 0.365,1.3558 0.2607,0.6257 0.6257,1.1993 0.365,0.5214 0.9386,0.8864 0.6257,0.365 1.3036,0.365 z m 14.7567,5.5273 7.1958,-38.3257 h 8.2387 l 7.1958,38.3257 h -7.2479 l -1.0429,-7.613 h -6.0487 l -1.0429,7.613 z m 13.5052,-13.5574 -1.6165,-11.993 q -0.1564,-0.9386 -0.3128,-1.8772 -0.1043,-0.9908 -0.2607,-1.9815 -0.1565,0.9907 -0.3129,1.9815 -0.1043,0.9386 -0.2607,1.8772 l -1.6165,11.993 z"
       id="text103"
       style="font-weight:900;font-size:52.1437px;line-height:51.3188px;font-family:'Iosevka SS15';-inkscape-font-specification:'Iosevka SS15, Heavy';text-align:center;text-anchor:middle;stroke-width:0.469294"
       aria-label="16A" /><path
       d="m 3416.5928,1687.6943 v -5.9443 h 5.9444 v -25.8633 l -4.8494,4.7972 -3.5458,-2.9722 8.3952,-8.343 h 7.1437 v 32.3813 h 5.1622 v 5.9443 z m 35.197,0.4172 q -1.46,0 -2.8679,-0.2607 -1.4079,-0.2608 -2.7115,-0.9386 -1.2514,-0.6779 -2.2422,-1.7208 -0.9907,-1.0428 -1.6164,-2.3464 -0.6257,-1.3036 -0.8865,-2.7115 -0.2085,-1.46 -0.2085,-2.8679 v -17.4681 q 0,-1.4079 0.2085,-2.8158 0.2608,-1.46 0.8865,-2.7636 0.6257,-1.3036 1.6164,-2.3465 0.9908,-1.0429 2.2422,-1.7207 1.3036,-0.6779 2.7115,-0.9386 1.4079,-0.2607 2.8679,-0.2607 1.46,0 2.8679,0.2607 1.4079,0.2607 2.6593,0.9386 1.3036,0.6778 2.2943,1.7207 0.9908,1.0429 1.6165,2.3465 0.6257,1.3036 0.8343,2.7636 0.2607,1.4079 0.2607,2.8158 v 17.4681 q 0,1.4079 -0.2607,2.8679 -0.2086,1.4079 -0.8343,2.7115 -0.6257,1.3036 -1.6165,2.3464 -0.9907,1.0429 -2.2943,1.7208 -1.2514,0.6778 -2.6593,0.9386 -1.4079,0.2607 -2.8679,0.2607 z m 0,-5.9444 q 0.8343,0 1.5643,-0.4171 0.7822,-0.4693 1.1472,-1.1994 0.4171,-0.7821 0.5214,-1.6164 0.1564,-0.8343 0.1564,-1.6686 v -17.4681 q 0,-0.8343 -0.1564,-1.6686 -0.1043,-0.8343 -0.5214,-1.5644 -0.365,-0.7821 -1.1472,-1.1993 -0.73,-0.4693 -1.5643,-0.4693 -0.8343,0 -1.6165,0.4693 -0.73,0.4172 -1.1471,1.1993 -0.365,0.7301 -0.5215,1.5644 -0.1042,0.8343 -0.1042,1.6686 v 17.4681 q 0,0.8343 0.1042,1.6686 0.1565,0.8343 0.5215,1.6164 0.4171,0.7301 1.1471,1.1994 0.7822,0.4171 1.6165,0.4171 z m 0,-8.9687 q -0.365,0 -0.6779,-0.1043 -0.3128,-0.1564 -0.5214,-0.4171 -0.1564,-0.3129 -0.2607,-0.6779 -0.052,-0.365 -0.052,-0.6779 v -5.5794 q 0,-0.3128 0.052,-0.6778 0.1043,-0.365 0.2607,-0.6258 0.2086,-0.3128 0.5214,-0.4171 0.3129,-0.1564 0.6779,-0.1564 0.365,0 0.6779,0.1564 0.3128,0.1043 0.4693,0.4171 0.2085,0.2608 0.2607,0.6258 0.1043,0.365 0.1043,0.6778 v 5.5794 q 0,0.3129 -0.1043,0.6779 -0.052,0.365 -0.2607,0.6779 -0.1565,0.2607 -0.4693,0.4171 -0.3129,0.1043 -0.6779,0.1043 z m 14.7567,14.4959 7.1958,-38.3256 h 8.2387 l 7.1958,38.3256 h -7.2479 l -1.0429,-7.6129 h -6.0487 l -1.0429,7.6129 z m 13.5052,-13.5573 -1.6165,-11.9931 q -0.1564,-0.9386 -0.3128,-1.8772 -0.1043,-0.9907 -0.2608,-1.9814 -0.1564,0.9907 -0.3128,1.9814 -0.1043,0.9386 -0.2607,1.8772 l -1.6165,11.9931 z"
       id="text104"
       style="font-weight:900;font-size:52.1437px;line-height:51.3188px;font-family:'Iosevka SS15';-inkscape-font-specification:'Iosevka SS15, Heavy';text-align:center;text-anchor:middle;stroke-width:0.469294"
       aria-label="10A" /><path
       d="m 3693.9536,1688.1115 q -1.5643,0 -3.0765,-0.365 -1.5122,-0.365 -2.8158,-1.1993 -1.2514,-0.8865 -2.19,-2.1379 -0.9386,-1.2515 -1.5122,-2.6593 -0.5214,-1.4601 -0.73,-2.9722 -0.2086,-1.5643 -0.2086,-3.1287 0,-2.8157 0.3129,-5.5793 0.3129,-2.8158 0.9386,-5.5794 0.6257,-2.7636 1.825,-5.3187 1.2515,-2.555 3.1286,-4.6408 1.9294,-2.0857 4.3801,-3.4936 2.5029,-1.46 5.2665,-2.0857 l 1.7208,5.7358 q -1.8772,0.6257 -3.5458,1.7729 -1.6164,1.1471 -2.8679,2.7114 -1.1993,1.5643 -1.9293,3.4415 -0.73,1.825 -1.1472,3.7544 0.4172,-0.6779 0.9908,-1.3036 0.5735,-0.6258 1.3035,-1.0429 0.7301,-0.4172 1.5122,-0.5736 0.8343,-0.2086 1.6686,-0.2086 1.3557,0 2.6072,0.5736 1.2514,0.5736 2.1379,1.6165 0.8864,0.9907 1.4079,2.2943 0.5214,1.2514 0.8343,2.555 0.3128,1.3036 0.4171,2.6594 0.1043,1.3557 0.1043,2.7114 0,1.5644 -0.2086,3.1287 -0.2085,1.5121 -0.7821,2.9722 -0.5215,1.4078 -1.46,2.6593 -0.9386,1.2514 -2.2422,2.1379 -1.2515,0.8343 -2.7636,1.1993 -1.5122,0.365 -3.0765,0.365 z m 0,-5.9444 q 0.6778,0 1.2514,-0.365 0.6258,-0.365 0.9908,-0.8864 0.365,-0.5736 0.5735,-1.1994 0.2608,-0.6778 0.365,-1.3557 0.1043,-0.6779 0.1565,-1.3557 0.052,-0.6779 0.052,-1.3558 0,-0.6778 -0.052,-1.3557 -0.052,-0.6779 -0.1565,-1.3036 -0.1042,-0.6779 -0.365,-1.3036 -0.2085,-0.6778 -0.5735,-1.2514 -0.365,-0.5736 -0.9908,-0.8865 -0.5736,-0.365 -1.2514,-0.365 -0.8343,0 -1.5122,0.5215 -0.6779,0.5214 -1.0429,1.3036 -0.365,0.73 -0.5735,1.5643 -0.1565,0.7821 -0.2086,1.6164 -0.052,0.365 -0.052,0.73 0,0.365 0,0.73 0,0.6779 0,1.3558 0.052,0.6778 0.1565,1.3557 0.1564,0.6779 0.365,1.3557 0.2607,0.6258 0.6257,1.1994 0.365,0.5214 0.9386,0.8864 0.6257,0.365 1.3036,0.365 z m 14.7566,5.5272 7.1959,-38.3256 h 8.2387 l 7.1958,38.3256 h -7.248 l -1.0428,-7.6129 h -6.0487 l -1.0429,7.6129 z m 13.5053,-13.5573 -1.6165,-11.9931 q -0.1564,-0.9386 -0.3129,-1.8772 -0.1042,-0.9907 -0.2607,-1.9814 -0.1564,0.9907 -0.3128,1.9814 -0.1043,0.9386 -0.2608,1.8772 l -1.6164,11.9931 z"
       id="text105"
       style="font-weight:900;font-size:52.1437px;line-height:51.3188px;font-family:'Iosevka SS15';-inkscape-font-specification:'Iosevka SS15, Heavy';text-align:center;text-anchor:middle;stroke-width:0.469294"
       aria-label="6A" /><path
       d="m 3965.6608,1687.6943 h -7.0915 v -9.2815 h -11.1588 v -5.9444 l 9.6466,-23.0997 h 8.6037 v 23.0997 h 2.3986 v 5.9444 h -2.3986 z m -7.0915,-15.2259 v -11.8366 l -4.9537,11.8366 z m 14.1309,15.2259 7.1959,-38.3256 h 8.2387 l 7.1958,38.3256 h -7.248 l -1.0428,-7.6129 h -6.0487 l -1.0429,7.6129 z m 13.5053,-13.5573 -1.6165,-11.9931 q -0.1564,-0.9386 -0.3129,-1.8772 -0.1043,-0.9907 -0.2607,-1.9814 -0.1564,0.9907 -0.3128,1.9814 -0.1043,0.9386 -0.2608,1.8772 l -1.6164,11.9931 z"
       id="text106"
       style="font-weight:900;font-size:52.1437px;line-height:51.3188px;font-family:'Iosevka SS15';-inkscape-font-specification:'Iosevka SS15, Heavy';text-align:center;text-anchor:middle;stroke-width:0.469294"
       aria-label="4A" /><g
       id="g116"
       style="display:none"><text
         xml:space="preserve"
         style="font-style:normal;font-variant:normal;font-weight:900;font-stretch:normal;font-size:52.1437px;line-height:51.3188px;font-family:'Iosevka SS15';-inkscape-font-specification:'Iosevka SS15, Heavy';font-variant-ligatures:normal;font-variant-caps:normal;font-variant-numeric:normal;font-variant-east-asian:normal;text-align:center;text-anchor:middle;fill:#000000;fill-opacity:1;stroke:none;stroke-width:0.469294;stroke-dasharray:none;stroke-opacity:1"
         x="3450.7468"
         y="1120.9492"
         id="text108"><tspan
           id="tspan108"
           x="3450.7468"
           y="1120.9492"
           style="font-style:normal;font-variant:normal;font-weight:900;font-stretch:normal;font-size:52.1437px;font-family:'Iosevka SS15';-inkscape-font-specification:'Iosevka SS15, Heavy';font-variant-ligatures:normal;font-variant-caps:normal;font-variant-numeric:normal;font-variant-east-asian:normal;fill:#000000;fill-opacity:1;stroke-width:0.469294">63A</tspan></text><text
         xml:space="preserve"
         style="font-style:normal;font-variant:normal;font-weight:900;font-stretch:normal;font-size:52.1437px;line-height:51.3188px;font-family:'Iosevka SS15';-inkscape-font-specification:'Iosevka SS15, Heavy';font-variant-ligatures:normal;font-variant-caps:normal;font-variant-numeric:normal;font-variant-east-asian:normal;text-align:center;text-anchor:middle;fill:#000000;fill-opacity:1;stroke:none;stroke-width:0.469294;stroke-dasharray:none;stroke-opacity:1"
         x="3719.7126"
         y="1120.9492"
         id="text109"><tspan
           id="tspan109"
           x="3719.7126"
           y="1120.9492"
           style="font-style:normal;font-variant:normal;font-weight:900;font-stretch:normal;font-size:52.1437px;font-family:'Iosevka SS15';-inkscape-font-specification:'Iosevka SS15, Heavy';font-variant-ligatures:normal;font-variant-caps:normal;font-variant-numeric:normal;font-variant-east-asian:normal;fill:#000000;fill-opacity:1;stroke-width:0.469294">50A</tspan></text><text
         xml:space="preserve"
         style="font-style:normal;font-variant:normal;font-weight:900;font-stretch:normal;font-size:52.1437px;line-height:51.3188px;font-family:'Iosevka SS15';-inkscape-font-specification:'Iosevka SS15, Heavy';font-variant-ligatures:normal;font-variant-caps:normal;font-variant-numeric:normal;font-variant-east-asian:normal;text-align:center;text-anchor:middle;fill:#000000;fill-opacity:1;stroke:none;stroke-width:0.469294;stroke-dasharray:none;stroke-opacity:1"
         x="3984.1196"
         y="1120.9492"
         id="text110"><tspan
           id="tspan110"
           x="3984.1196"
           y="1120.9492"
           style="font-style:normal;font-variant:normal;font-weight:900;font-stretch:normal;font-size:52.1437px;font-family:'Iosevka SS15';-inkscape-font-specification:'Iosevka SS15, Heavy';font-variant-ligatures:normal;font-variant-caps:normal;font-variant-numeric:normal;font-variant-east-asian:normal;fill:#000000;fill-opacity:1;stroke-width:0.469294">35A</tspan></text><text
         xml:space="preserve"
         style="font-style:normal;font-variant:normal;font-weight:900;font-stretch:normal;font-size:52.1437px;line-height:51.3188px;font-family:'Iosevka SS15';-inkscape-font-specification:'Iosevka SS15, Heavy';font-variant-ligatures:normal;font-variant-caps:normal;font-variant-numeric:normal;font-variant-east-asian:normal;text-align:center;text-anchor:middle;fill:#000000;fill-opacity:1;stroke:none;stroke-width:0.469294;stroke-dasharray:none;stroke-opacity:1"
         x="3450.4341"
         y="1397.7338"
         id="text111"><tspan
           id="tspan111"
           x="3450.4341"
           y="1397.7338"
           style="font-style:normal;font-variant:normal;font-weight:900;font-stretch:normal;font-size:52.1437px;font-family:'Iosevka SS15';-inkscape-font-specification:'Iosevka SS15, Heavy';font-variant-ligatures:normal;font-variant-caps:normal;font-variant-numeric:normal;font-variant-east-asian:normal;fill:#000000;fill-opacity:1;stroke-width:0.469294">25A</tspan></text><text
         xml:space="preserve"
         style="font-style:normal;font-variant:normal;font-weight:900;font-stretch:normal;font-size:52.1437px;line-height:51.3188px;font-family:'Iosevka SS15';-inkscape-font-specification:'Iosevka SS15, Heavy';font-variant-ligatures:normal;font-variant-caps:normal;font-variant-numeric:normal;font-variant-east-asian:normal;text-align:center;text-anchor:middle;fill:#000000;fill-opacity:1;stroke:none;stroke-width:0.469294;stroke-dasharray:none;stroke-opacity:1"
         x="3719.7126"
         y="1397.7338"
         id="text112"><tspan
           id="tspan112"
           x="3719.7126"
           y="1397.7338"
           style="font-style:normal;font-variant:normal;font-weight:900;font-stretch:normal;font-size:52.1437px;font-family:'Iosevka SS15';-inkscape-font-specification:'Iosevka SS15, Heavy';font-variant-ligatures:normal;font-variant-caps:normal;font-variant-numeric:normal;font-variant-east-asian:normal;fill:#000000;fill-opacity:1;stroke-width:0.469294">20A</tspan></text><text
         xml:space="preserve"
         style="font-style:normal;font-variant:normal;font-weight:900;font-stretch:normal;font-size:52.1437px;line-height:51.3188px;font-family:'Iosevka SS15';-inkscape-font-specification:'Iosevka SS15, Heavy';font-variant-ligatures:normal;font-variant-caps:normal;font-variant-numeric:normal;font-variant-east-asian:normal;text-align:center;text-anchor:middle;fill:#000000;fill-opacity:1;stroke:none;stroke-width:0.469294;stroke-dasharray:none;stroke-opacity:1"
         x="3985.0581"
         y="1397.7338"
         id="text113"><tspan
           id="tspan113"
           x="3985.0581"
           y="1397.7338"
           style="font-style:normal;font-variant:normal;font-weight:900;font-stretch:normal;font-size:52.1437px;font-family:'Iosevka SS15';-inkscape-font-specification:'Iosevka SS15, Heavy';font-variant-ligatures:normal;font-variant-caps:normal;font-variant-numeric:normal;font-variant-east-asian:normal;fill:#000000;fill-opacity:1;stroke-width:0.469294">16A</tspan></text><text
         xml:space="preserve"
         style="font-style:normal;font-variant:normal;font-weight:900;font-stretch:normal;font-size:52.1437px;line-height:51.3188px;font-family:'Iosevka SS15';-inkscape-font-specification:'Iosevka SS15, Heavy';font-variant-ligatures:normal;font-variant-caps:normal;font-variant-numeric:normal;font-variant-east-asian:normal;text-align:center;text-anchor:middle;fill:#000000;fill-opacity:1;stroke:none;stroke-width:0.469294;stroke-dasharray:none;stroke-opacity:1"
         x="3451.7898"
         y="1687.6943"
         id="text114"><tspan
           id="tspan114"
           x="3451.7898"
           y="1687.6943"
           style="font-style:normal;font-variant:normal;font-weight:900;font-stretch:normal;font-size:52.1437px;font-family:'Iosevka SS15';-inkscape-font-specification:'Iosevka SS15, Heavy';font-variant-ligatures:normal;font-variant-caps:normal;font-variant-numeric:normal;font-variant-east-asian:normal;fill:#000000;fill-opacity:1;stroke-width:0.469294">10A</tspan></text><text
         xml:space="preserve"
         style="font-style:normal;font-variant:normal;font-weight:900;font-stretch:normal;font-size:52.1437px;line-height:51.3188px;font-family:'Iosevka SS15';-inkscape-font-specification:'Iosevka SS15, Heavy';font-variant-ligatures:normal;font-variant-caps:normal;font-variant-numeric:normal;font-variant-east-asian:normal;text-align:center;text-anchor:middle;fill:#000000;fill-opacity:1;stroke:none;stroke-width:0.469294;stroke-dasharray:none;stroke-opacity:1"
         x="3706.9895"
         y="1687.6943"
         id="text115"><tspan
           id="tspan115"
           x="3706.9895"
           y="1687.6943"
           style="font-style:normal;font-variant:normal;font-weight:900;font-stretch:normal;font-size:52.1437px;font-family:'Iosevka SS15';-inkscape-font-specification:'Iosevka SS15, Heavy';font-variant-ligatures:normal;font-variant-caps:normal;font-variant-numeric:normal;font-variant-east-asian:normal;fill:#000000;fill-opacity:1;stroke-width:0.469294">6A</tspan></text><text
         xml:space="preserve"
         style="font-style:normal;font-variant:normal;font-weight:900;font-stretch:normal;font-size:52.1437px;line-height:51.3188px;font-family:'Iosevka SS15';-inkscape-font-specification:'Iosevka SS15, Heavy';font-variant-ligatures:normal;font-variant-caps:normal;font-variant-numeric:normal;font-variant-east-asian:normal;text-align:center;text-anchor:middle;fill:#000000;fill-opacity:1;stroke:none;stroke-width:0.469294;stroke-dasharray:none;stroke-opacity:1"
         x="3970.9795"
         y="1687.6943"
         id="text116"><tspan
           id="tspan116"
           x="3970.9795"
           y="1687.6943"
           style="font-style:normal;font-variant:normal;font-weight:900;font-stretch:normal;font-size:52.1437px;font-family:'Iosevka SS15';-inkscape-font-specification:'Iosevka SS15, Heavy';font-variant-ligatures:normal;font-variant-caps:normal;font-variant-numeric:normal;font-variant-east-asian:normal;fill:#000000;fill-opacity:1;stroke-width:0.469294">4A</tspan></text></g></g><g
     id="layer3"
     transform="translate(-3241.8228,-902.95705)"><g
       id="g89"
       transform="matrix(0.35018683,0,0,0.35018683,2649.6627,1434.4778)"><path
         style="fill:#cccccc;fill-opacity:1;stroke:none;stroke-width:3;stroke-dasharray:none;stroke-opacity:1"
         d="m 2241.0404,288.69592 28.4457,154.88836 c 0,0 -10.497,8.43628 -20.8367,6.90229 -10.3398,-1.53398 -19.1201,0.68212 -20.2838,6.00994 -1.1637,5.32782 -16.3742,40.61558 -16.3742,40.61558 l -31.4102,-99.45706 -28.9589,-22.22727 50.1715,-97.97517 z"
         id="path38" /><path
         style="display:inline;fill:#e7e7e7;fill-opacity:1;stroke:none;stroke-width:3;stroke-dasharray:none;stroke-opacity:1"
         d="m 2185.9363,390.21295 8.5446,0.011 31.6505,161.43911 c 0,0 -50.0017,54.06149 -112.9319,78.81366 -62.9301,24.75218 -149.1813,19.35842 -202.2275,-2.28233 -53.0461,-21.64076 -74.2534,-43.82681 -87.0358,-71.90361 -12.7825,-28.0768 -51.9332,-189.88509 -51.9332,-189.88509 l 45.0965,36.14083 138.8239,60.84873 179.1765,-37.26365 z"
         id="path36" /><path
         style="fill:#cccccc;fill-opacity:1;stroke:none;stroke-width:3;stroke-dasharray:none;stroke-opacity:1"
         d="m 1815.3305,246.01569 15.3455,46.44779 16.5257,-42.24919 -8.763,-7.93362 z"
         id="path37" /><path
         style="fill:none;fill-opacity:1;stroke:#a7a7a7;stroke-width:3;stroke-dasharray:none;stroke-opacity:1"
         d="m 2202.1094,283.81564 29.4173,169.43642"
         id="path39" /><path
         style="display:inline;fill:#e42800;fill-opacity:1;stroke:none;stroke-width:3;stroke-dasharray:none;stroke-opacity:1"
         d="m 2167.3143,377.22417 37.1137,-90.05001 c 0,0 27.5446,9.61852 32.9907,7.03503 5.446,-2.58348 2.6371,-13.89222 0.8806,-20.39466 -1.7565,-6.50243 -14.1961,-52.39876 -62.6763,-85.63644 -48.4803,-33.23767 -128.0574,-42.13464 -191.1991,-31.65894 -63.1418,10.4757 -135.9629,54.05278 -160.462,71.03348 -24.4991,16.98071 -1.5534,24.07376 5.2721,21.89023 6.8255,-2.18354 14.3859,-0.29357 8.6656,14.0139 -5.7202,14.30747 -35.1654,73.42201 -35.1654,73.42201 l -18.4163,1.01383 c 0,0 -15.0315,4.19032 -14.5539,11.40391 0.4777,7.21358 7.9732,48.43273 16.2488,62.96449 8.2757,14.53177 57.1178,70.43213 129.3472,77.2126 72.2293,6.78047 138.4639,5.19277 218.9019,-36.57601 80.438,-41.76878 56.9426,-69.38582 56.9426,-69.38582 z"
         id="path34" /><path
         style="display:inline;fill:#f8f8f8;fill-opacity:1;stroke:none;stroke-width:3;stroke-dasharray:none;stroke-opacity:1"
         d="m 1939.7227,301.793 c 0,0 19.8726,-31.21256 49.4685,-35.43849 29.5959,-4.22592 58.0226,1.46808 69.6436,11.88565 11.6209,10.41758 20.186,36.79011 -0.7067,57.89914 -20.8928,21.10904 -63.1969,25.64966 -71.7166,26.67484 -8.5198,1.02518 -38.3628,-4.00225 -47.671,-25.07552 -9.3083,-21.07327 0.9822,-35.94562 0.9822,-35.94562 z"
         id="path35" /></g><g
       id="g88"
       transform="matrix(0.35018683,0,0,0.35018683,2363.0397,1141.5806)"><path
         style="fill:#cccccc;fill-opacity:1;stroke:none;stroke-width:3;stroke-dasharray:none;stroke-opacity:1"
         d="m 3059.5262,288.69592 28.4457,154.88836 c 0,0 -10.497,8.43628 -20.8367,6.90229 -10.3398,-1.53398 -19.1201,0.68212 -20.2838,6.00994 -1.1637,5.32782 -16.3742,40.61558 -16.3742,40.61558 l -31.4102,-99.45706 -28.9589,-22.22727 50.1715,-97.97517 z"
         id="path41" /><path
         style="display:inline;fill:#e7e7e7;fill-opacity:1;stroke:none;stroke-width:3;stroke-dasharray:none;stroke-opacity:1"
         d="m 3004.4221,390.21295 8.5446,0.011 31.6505,161.43911 c 0,0 -50.0017,54.06149 -112.9319,78.81366 -62.9301,24.75218 -149.1813,19.35842 -202.2275,-2.28233 -53.0461,-21.64076 -74.2534,-43.82681 -87.0358,-71.90361 -12.7825,-28.0768 -51.9332,-189.88509 -51.9332,-189.88509 l 45.0965,36.14083 138.8239,60.84873 179.1765,-37.26365 z"
         id="path40" /><path
         style="fill:#cccccc;fill-opacity:1;stroke:none;stroke-width:3;stroke-dasharray:none;stroke-opacity:1"
         d="m 2633.8163,246.01569 15.3455,46.44779 16.5257,-42.24919 -8.763,-7.93362 z"
         id="path42" /><path
         style="fill:none;fill-opacity:1;stroke:#a7a7a7;stroke-width:3;stroke-dasharray:none;stroke-opacity:1"
         d="m 3020.5952,283.81564 29.4173,169.43642"
         id="path43" /><path
         style="display:inline;fill:#f3e600;fill-opacity:1;stroke:none;stroke-width:3;stroke-dasharray:none;stroke-opacity:1"
         d="m 2985.8001,377.22417 37.1137,-90.05001 c 0,0 27.5446,9.61852 32.9907,7.03503 5.446,-2.58348 2.6371,-13.89222 0.8806,-20.39466 -1.7565,-6.50243 -14.1961,-52.39876 -62.6763,-85.63644 -48.4803,-33.23767 -128.0574,-42.13464 -191.1991,-31.65894 -63.1418,10.4757 -135.9629,54.05278 -160.462,71.03348 -24.4991,16.98071 -1.5534,24.07376 5.2721,21.89023 6.8255,-2.18354 14.3859,-0.29357 8.6656,14.0139 -5.7202,14.30747 -35.1654,73.42201 -35.1654,73.42201 l -18.4163,1.01383 c 0,0 -15.0315,4.19032 -14.5539,11.40391 0.4777,7.21358 7.9732,48.43273 16.2488,62.96449 8.2757,14.53177 57.1178,70.43213 129.3472,77.2126 72.2293,6.78047 138.4639,5.19277 218.9019,-36.57601 80.438,-41.76878 56.9426,-69.38582 56.9426,-69.38582 z"
         id="path44" /><path
         style="display:inline;fill:#f8f8f8;fill-opacity:1;stroke:none;stroke-width:3;stroke-dasharray:none;stroke-opacity:1"
         d="m 2758.2085,301.793 c 0,0 19.8726,-31.21256 49.4685,-35.43849 29.5959,-4.22592 58.0226,1.46808 69.6436,11.88565 11.6209,10.41758 20.186,36.79011 -0.7067,57.89914 -20.8928,21.10904 -63.1969,25.64966 -71.7166,26.67484 -8.5198,1.02518 -38.3628,-4.00225 -47.671,-25.07552 -9.3083,-21.07327 0.9822,-35.94562 0.9822,-35.94562 z"
         id="path45" /></g><g
       id="g87"
       transform="matrix(0.35018683,0,0,0.35018683,2340.8635,1141.5806)"><path
         style="fill:#cccccc;fill-opacity:1;stroke:none;stroke-width:3;stroke-dasharray:none;stroke-opacity:1"
         d="m 3869.1376,288.69592 28.4457,154.88836 c 0,0 -10.497,8.43628 -20.8367,6.90229 -10.3398,-1.53398 -19.1201,0.68212 -20.2838,6.00994 -1.1637,5.32782 -16.3742,40.61558 -16.3742,40.61558 l -31.4102,-99.45706 -28.9589,-22.22727 50.1715,-97.97517 z"
         id="path47" /><path
         style="display:inline;fill:#e7e7e7;fill-opacity:1;stroke:none;stroke-width:3;stroke-dasharray:none;stroke-opacity:1"
         d="m 3814.0335,390.21295 8.5446,0.011 31.6505,161.43911 c 0,0 -50.0017,54.06149 -112.9319,78.81366 -62.9301,24.75218 -149.1813,19.35842 -202.2275,-2.28233 -53.0461,-21.64076 -74.2534,-43.82681 -87.0358,-71.90361 -12.7825,-28.0768 -51.9332,-189.88509 -51.9332,-189.88509 l 45.0965,36.14083 138.8239,60.84873 179.1765,-37.26365 z"
         id="path46" /><path
         style="fill:#cccccc;fill-opacity:1;stroke:none;stroke-width:3;stroke-dasharray:none;stroke-opacity:1"
         d="m 3443.4277,246.01569 15.3455,46.44779 16.5257,-42.24919 -8.763,-7.93362 z"
         id="path48" /><path
         style="fill:none;fill-opacity:1;stroke:#a7a7a7;stroke-width:3;stroke-dasharray:none;stroke-opacity:1"
         d="m 3830.2066,283.81564 29.4173,169.43642"
         id="path49" /><path
         style="display:inline;fill:#008be4;fill-opacity:1;stroke:none;stroke-width:3;stroke-dasharray:none;stroke-opacity:1"
         d="m 3795.4115,377.22417 37.1137,-90.05001 c 0,0 27.5446,9.61852 32.9907,7.03503 5.446,-2.58348 2.6371,-13.89222 0.8806,-20.39466 -1.7565,-6.50243 -14.1961,-52.39876 -62.6763,-85.63644 -48.4803,-33.23767 -128.0574,-42.13464 -191.1991,-31.65894 -63.1418,10.4757 -135.9629,54.05278 -160.462,71.03348 -24.4991,16.98071 -1.5534,24.07376 5.2721,21.89023 6.8255,-2.18354 14.3859,-0.29357 8.6656,14.0139 -5.7202,14.30747 -35.1654,73.42201 -35.1654,73.42201 l -18.4163,1.01383 c 0,0 -15.0315,4.19032 -14.5539,11.40391 0.4777,7.21358 7.9732,48.43273 16.2488,62.96449 8.2757,14.53177 57.1178,70.43213 129.3472,77.2126 72.2293,6.78047 138.4639,5.19277 218.9019,-36.57601 80.438,-41.76878 56.9426,-69.38582 56.9426,-69.38582 z"
         id="path50" /><path
         style="display:inline;fill:#f8f8f8;fill-opacity:1;stroke:none;stroke-width:3;stroke-dasharray:none;stroke-opacity:1"
         d="m 3567.8199,301.793 c 0,0 19.8726,-31.21256 49.4685,-35.43849 29.5959,-4.22592 58.0226,1.46808 69.6436,11.88565 11.6209,10.41758 20.186,36.79011 -0.7067,57.89914 -20.8928,21.10904 -63.1969,25.64966 -71.7166,26.67484 -8.5198,1.02518 -38.3628,-4.00225 -47.671,-25.07552 -9.3083,-21.07327 0.9822,-35.94562 0.9822,-35.94562 z"
         id="path51" /></g><g
       id="g86"
       transform="matrix(0.35018683,0,0,0.35018683,2327.9192,1141.5806)"><path
         style="fill:#cccccc;fill-opacity:1;stroke:none;stroke-width:3;stroke-dasharray:none;stroke-opacity:1"
         d="m 4680.2079,288.69592 28.4457,154.88836 c 0,0 -10.497,8.43628 -20.8367,6.90229 -10.3398,-1.53398 -19.1201,0.68212 -20.2838,6.00994 -1.1637,5.32782 -16.3742,40.61558 -16.3742,40.61558 l -31.4102,-99.45706 -28.9589,-22.22727 50.1715,-97.97517 z"
         id="path53" /><path
         style="display:inline;fill:#e7e7e7;fill-opacity:1;stroke:none;stroke-width:3;stroke-dasharray:none;stroke-opacity:1"
         d="m 4625.1038,390.21295 8.5446,0.011 31.6505,161.43911 c 0,0 -50.0017,54.06149 -112.9319,78.81366 -62.9301,24.75218 -149.1813,19.35842 -202.2275,-2.28233 -53.0461,-21.64076 -74.2534,-43.82681 -87.0358,-71.90361 -12.7825,-28.0768 -51.9332,-189.88509 -51.9332,-189.88509 l 45.0965,36.14083 138.8239,60.84873 179.1765,-37.26365 z"
         id="path52" /><path
         style="fill:#cccccc;fill-opacity:1;stroke:none;stroke-width:3;stroke-dasharray:none;stroke-opacity:1"
         d="m 4254.498,246.01569 15.3455,46.44779 16.5257,-42.24919 -8.763,-7.93362 z"
         id="path54" /><path
         style="fill:none;fill-opacity:1;stroke:#a7a7a7;stroke-width:3;stroke-dasharray:none;stroke-opacity:1"
         d="m 4641.2769,283.81564 29.4173,169.43642"
         id="path55" /><path
         style="display:inline;fill:#9a9a9a;fill-opacity:1;stroke:none;stroke-width:3;stroke-dasharray:none;stroke-opacity:1"
         d="m 4606.4818,377.22417 37.1137,-90.05001 c 0,0 27.5446,9.61852 32.9907,7.03503 5.446,-2.58348 2.6371,-13.89222 0.8806,-20.39466 -1.7565,-6.50243 -14.1961,-52.39876 -62.6763,-85.63644 -48.4803,-33.23767 -128.0574,-42.13464 -191.1991,-31.65894 -63.1418,10.4757 -135.9629,54.05278 -160.462,71.03348 -24.4991,16.98071 -1.5534,24.07376 5.2721,21.89023 6.8255,-2.18354 14.3859,-0.29357 8.6656,14.0139 -5.7202,14.30747 -35.1654,73.42201 -35.1654,73.42201 l -18.4163,1.01383 c 0,0 -15.0315,4.19032 -14.5539,11.40391 0.4777,7.21358 7.9732,48.43273 16.2488,62.96449 8.2757,14.53177 57.1178,70.43213 129.3472,77.2126 72.2293,6.78047 138.4639,5.19277 218.9019,-36.57601 80.438,-41.76878 56.9426,-69.38582 56.9426,-69.38582 z"
         id="path56" /><path
         style="display:inline;fill:#f8f8f8;fill-opacity:1;stroke:none;stroke-width:3;stroke-dasharray:none;stroke-opacity:1"
         d="m 4378.8902,301.793 c 0,0 19.8726,-31.21256 49.4685,-35.43849 29.5959,-4.22592 58.0226,1.46808 69.6436,11.88565 11.6209,10.41758 20.186,36.79011 -0.7067,57.89914 -20.8928,21.10904 -63.1969,25.64966 -71.7166,26.67484 -8.5198,1.02518 -38.3628,-4.00225 -47.671,-25.07552 -9.3083,-21.07327 0.9822,-35.94562 0.9822,-35.94562 z"
         id="path57" /></g><g
       id="g84"
       transform="matrix(0.35018683,0,0,0.35018683,1758.2652,1434.4778)"><path
         style="fill:#cccccc;fill-opacity:1;stroke:none;stroke-width:3;stroke-dasharray:none;stroke-opacity:1"
         d="m 6306.9225,288.69592 28.4457,154.88836 c 0,0 -10.497,8.43628 -20.8367,6.90229 -10.3398,-1.53398 -19.1201,0.68212 -20.2838,6.00994 -1.1637,5.32782 -16.3742,40.61558 -16.3742,40.61558 l -31.4102,-99.45706 -28.9589,-22.22727 50.1715,-97.97517 z"
         id="path73" /><path
         style="display:inline;fill:#e7e7e7;fill-opacity:1;stroke:none;stroke-width:3;stroke-dasharray:none;stroke-opacity:1"
         d="m 6251.8184,390.21295 8.5446,0.011 31.6505,161.43911 c 0,0 -50.0017,54.06149 -112.9319,78.81366 -62.9301,24.75218 -149.1813,19.35842 -202.2275,-2.28233 -53.0461,-21.64076 -74.2534,-43.82681 -87.0358,-71.90361 -12.7825,-28.0768 -51.9332,-189.88509 -51.9332,-189.88509 l 45.0965,36.14083 138.8239,60.84873 179.1765,-37.26365 z"
         id="path72" /><path
         style="fill:#cccccc;fill-opacity:1;stroke:none;stroke-width:3;stroke-dasharray:none;stroke-opacity:1"
         d="m 5881.2126,246.01569 15.3455,46.44779 16.5257,-42.24919 -8.763,-7.93362 z"
         id="path74" /><path
         style="fill:none;fill-opacity:1;stroke:#a7a7a7;stroke-width:3;stroke-dasharray:none;stroke-opacity:1"
         d="m 6267.9915,283.81564 29.4173,169.43642"
         id="path75" /><path
         style="display:inline;fill:#a24c08;fill-opacity:1;stroke:none;stroke-width:3;stroke-dasharray:none;stroke-opacity:1"
         d="m 6233.1964,377.22417 37.1137,-90.05001 c 0,0 27.5446,9.61852 32.9907,7.03503 5.446,-2.58348 2.6371,-13.89222 0.8806,-20.39466 -1.7565,-6.50243 -14.1961,-52.39876 -62.6763,-85.63644 -48.4803,-33.23767 -128.0574,-42.13464 -191.1991,-31.65894 -63.1418,10.4757 -135.9629,54.05278 -160.462,71.03348 -24.4991,16.98071 -1.5534,24.07376 5.2721,21.89023 6.8255,-2.18354 14.3859,-0.29357 8.6656,14.0139 -5.7202,14.30747 -35.1654,73.42201 -35.1654,73.42201 L 5850.2,337.8926 c 0,0 -15.0315,4.19032 -14.5539,11.40391 0.4777,7.21358 7.9732,48.43273 16.2488,62.96449 8.2757,14.53177 57.1178,70.43213 129.3472,77.2126 72.2293,6.78047 138.4639,5.19277 218.9019,-36.57601 80.438,-41.76878 56.9426,-69.38582 56.9426,-69.38582 z"
         id="path76" /><path
         style="display:inline;fill:#f8f8f8;fill-opacity:1;stroke:none;stroke-width:3;stroke-dasharray:none;stroke-opacity:1"
         d="m 6005.6048,301.793 c 0,0 19.8726,-31.21256 49.4685,-35.43849 29.5959,-4.22592 58.0226,1.46808 69.6436,11.88565 11.6209,10.41758 20.186,36.79011 -0.7067,57.89914 -20.8928,21.10904 -63.1969,25.64966 -71.7166,26.67484 -8.5198,1.02518 -38.3628,-4.00225 -47.671,-25.07552 -9.3083,-21.07327 0.9822,-35.94562 0.9822,-35.94562 z"
         id="path77" /></g><g
       id="g83"
       transform="matrix(0.35018683,0,0,0.35018683,1206.9223,1434.165)"><path
         style="fill:#cccccc;fill-opacity:1;stroke:none;stroke-width:3;stroke-dasharray:none;stroke-opacity:1"
         d="m 7107.241,289.58925 28.4457,154.88836 c 0,0 -10.497,8.43628 -20.8367,6.90229 -10.3398,-1.53398 -19.1201,0.68212 -20.2838,6.00994 -1.1637,5.32782 -16.3742,40.61558 -16.3742,40.61558 l -31.4102,-99.45706 -28.9589,-22.22727 50.1715,-97.97517 z"
         id="path79" /><path
         style="display:inline;fill:#e7e7e7;fill-opacity:1;stroke:none;stroke-width:3;stroke-dasharray:none;stroke-opacity:1"
         d="m 7052.1369,391.10628 8.5446,0.011 31.6505,161.43911 c 0,0 -50.0017,54.06149 -112.9319,78.81366 -62.9301,24.75218 -149.1813,19.35842 -202.2275,-2.28233 -53.0461,-21.64076 -74.2534,-43.82681 -87.0358,-71.90361 -12.7825,-28.0768 -51.9332,-189.88509 -51.9332,-189.88509 l 45.0965,36.14083 138.8239,60.84873 179.1765,-37.26365 z"
         id="path78" /><path
         style="fill:#cccccc;fill-opacity:1;stroke:none;stroke-width:3;stroke-dasharray:none;stroke-opacity:1"
         d="m 6681.5311,246.90902 15.3455,46.44779 16.5257,-42.24919 -8.763,-7.93362 z"
         id="path80" /><path
         style="fill:none;fill-opacity:1;stroke:#a7a7a7;stroke-width:3;stroke-dasharray:none;stroke-opacity:1"
         d="m 7068.31,284.70897 29.4173,169.43642"
         id="path81" /><path
         style="display:inline;fill:#2dab00;fill-opacity:1;stroke:none;stroke-width:3;stroke-dasharray:none;stroke-opacity:1"
         d="m 7033.5149,378.1175 37.1137,-90.05001 c 0,0 27.5446,9.61852 32.9907,7.03503 5.446,-2.58348 2.6371,-13.89222 0.8806,-20.39466 -1.7565,-6.50243 -14.1961,-52.39876 -62.6763,-85.63644 -48.4803,-33.23767 -128.0574,-42.13464 -191.1991,-31.65894 -63.1418,10.4757 -135.9629,54.05278 -160.462,71.03348 -24.4991,16.98071 -1.5534,24.07376 5.2721,21.89023 6.8255,-2.18354 14.3859,-0.29357 8.6656,14.0139 -5.7202,14.30747 -35.1654,73.42201 -35.1654,73.42201 l -18.4163,1.01383 c 0,0 -15.0315,4.19032 -14.5539,11.40391 0.4777,7.21358 7.9732,48.43273 16.2488,62.96449 8.2757,14.53177 57.1178,70.43213 129.3472,77.2126 72.2293,6.78047 138.4639,5.19277 218.9019,-36.57601 80.438,-41.76878 56.9426,-69.38582 56.9426,-69.38582 z"
         id="path82" /><path
         style="display:inline;fill:#f8f8f8;fill-opacity:1;stroke:none;stroke-width:3;stroke-dasharray:none;stroke-opacity:1"
         d="m 6805.9233,302.68633 c 0,0 19.8726,-31.21256 49.4685,-35.43849 29.5959,-4.22592 58.0226,1.46808 69.6436,11.88565 11.6209,10.41758 20.186,36.79011 -0.7067,57.89914 -20.8928,21.10904 -63.1969,25.64966 -71.7166,26.67484 -8.5198,1.02518 -38.3628,-4.00225 -47.671,-25.07552 -9.3083,-21.07327 0.9822,-35.94562 0.9822,-35.94562 z"
         id="path83" /></g></g></svg>
